<svg width="899" height="308" viewBox="0 0 899 308" fill="none" xmlns="http://www.w3.org/2000/svg">
<g clip-path="url(#clip0_1362_7650)">
<rect width="899" height="308" rx="16" fill="#F2F5F9"/>
<path d="M58.7159 58.0909V93H50.2955V65.9659H50.0909L42.2841 70.7386V63.4432L50.892 58.0909H58.7159ZM69.4077 93.4943C68.1804 93.4943 67.1293 93.0625 66.2543 92.1989C65.3906 91.3352 64.9645 90.2898 64.9759 89.0625C64.9645 87.858 65.3906 86.8295 66.2543 85.9773C67.1293 85.1136 68.1804 84.6818 69.4077 84.6818C70.5668 84.6818 71.5895 85.1136 72.4759 85.9773C73.3736 86.8295 73.8281 87.858 73.8395 89.0625C73.8281 89.8807 73.6122 90.625 73.1918 91.2955C72.7827 91.9659 72.2429 92.5 71.5724 92.8977C70.9134 93.2955 70.1918 93.4943 69.4077 93.4943ZM91.4134 93.4773C88.6974 93.4773 86.2713 93.0455 84.1349 92.1818C82.0099 91.3068 80.3395 90.125 79.1236 88.6364C77.919 87.1364 77.3168 85.4432 77.3168 83.5568C77.3168 82.1136 77.6634 80.7898 78.3565 79.5852C79.0497 78.3807 79.9872 77.3807 81.169 76.5852C82.3622 75.7784 83.6918 75.2614 85.1577 75.0341V74.7614C83.2372 74.4091 81.6634 73.517 80.4361 72.0852C79.2202 70.6534 78.6122 68.9773 78.6122 67.0568C78.6122 65.2386 79.1634 63.6193 80.2656 62.1989C81.3793 60.7784 82.8963 59.6591 84.8168 58.8409C86.7486 58.0227 88.9474 57.6136 91.4134 57.6136C93.8793 57.6136 96.0724 58.0227 97.9929 58.8409C99.9247 59.6591 101.442 60.7784 102.544 62.1989C103.658 63.6193 104.214 65.2386 104.214 67.0568C104.214 68.9886 103.595 70.6705 102.357 72.1023C101.129 73.5227 99.5668 74.4091 97.669 74.7614V75.0341C99.1236 75.2614 100.442 75.7784 101.624 76.5852C102.817 77.3807 103.76 78.3807 104.453 79.5852C105.158 80.7898 105.51 82.1136 105.51 83.5568C105.51 85.4432 104.902 87.1364 103.686 88.6364C102.47 90.125 100.8 91.3068 98.6747 92.1818C96.5611 93.0455 94.1406 93.4773 91.4134 93.4773ZM91.4134 87.4943C92.4474 87.4943 93.3565 87.3011 94.1406 86.9148C94.9247 86.517 95.5384 85.9659 95.9815 85.2614C96.4361 84.5568 96.6634 83.7614 96.6634 82.875C96.6634 81.9659 96.4361 81.1591 95.9815 80.4545C95.527 79.75 94.902 79.1989 94.1065 78.8011C93.3224 78.392 92.4247 78.1875 91.4134 78.1875C90.4134 78.1875 89.5156 78.392 88.7202 78.8011C87.9247 79.1989 87.2997 79.75 86.8452 80.4545C86.3906 81.1591 86.1634 81.9659 86.1634 82.875C86.1634 83.7614 86.3849 84.5568 86.8281 85.2614C87.2827 85.9545 87.902 86.5 88.6861 86.8977C89.4815 87.2955 90.3906 87.4943 91.4134 87.4943ZM91.4134 72.2386C92.2997 72.2386 93.0838 72.0568 93.7656 71.6932C94.4588 71.3295 94.9986 70.8239 95.3849 70.1761C95.7827 69.5284 95.9815 68.7955 95.9815 67.9773C95.9815 67.1591 95.7827 66.4375 95.3849 65.8125C94.9986 65.1875 94.4645 64.6989 93.7827 64.3466C93.1009 63.983 92.3111 63.8011 91.4134 63.8011C90.527 63.8011 89.7372 63.983 89.044 64.3466C88.3509 64.6989 87.8111 65.1875 87.4247 65.8125C87.0384 66.4375 86.8452 67.1591 86.8452 67.9773C86.8452 68.7955 87.0384 69.5284 87.4247 70.1761C87.8224 70.8125 88.3679 71.3182 89.0611 71.6932C89.7543 72.0568 90.5384 72.2386 91.4134 72.2386ZM136.447 84.1023L142.857 66.8182H148.959L139.124 93H133.771L124.192 66.8182H130.277L136.447 84.1023ZM128.487 66.8182V93H120.595V66.8182H128.487ZM144.885 93V66.8182H152.675V93H144.885ZM156.442 93L156.391 86.5739H157.226C157.794 86.5739 158.288 86.4261 158.709 86.1307C159.129 85.8352 159.482 85.3636 159.766 84.7159C160.05 84.0568 160.277 83.2102 160.447 82.1761C160.618 81.142 160.726 79.8864 160.771 78.4091L161.197 66.8182H181.925V93H174.033V73.1932H168.612L168.203 80.7273C168.101 82.9432 167.811 84.8352 167.334 86.4034C166.868 87.9602 166.232 89.2216 165.425 90.1875C164.629 91.1534 163.686 91.8636 162.595 92.3182C161.504 92.7727 160.271 93 158.896 93H156.442ZM205.477 76.6534V83.0114H192.045V76.6534H205.477ZM194.909 66.8182V93H187.017V66.8182H194.909ZM210.506 66.8182V93H202.665V66.8182H210.506ZM474.902 93V86.9318L487.635 75.7841C488.589 74.9205 489.402 74.1307 490.072 73.4148C490.743 72.6875 491.254 71.9602 491.607 71.233C491.959 70.4943 492.135 69.6932 492.135 68.8295C492.135 67.8636 491.925 67.0398 491.504 66.358C491.084 65.6648 490.504 65.1307 489.766 64.7557C489.027 64.3807 488.18 64.1932 487.226 64.1932C486.26 64.1932 485.413 64.392 484.686 64.7898C483.959 65.1761 483.391 65.7386 482.982 66.4773C482.584 67.2159 482.385 68.1136 482.385 69.1705H474.391C474.391 66.7955 474.925 64.7443 475.993 63.017C477.061 61.2898 478.561 59.9602 480.493 59.0284C482.436 58.0852 484.692 57.6136 487.26 57.6136C489.908 57.6136 492.209 58.0568 494.163 58.9432C496.118 59.8295 497.629 61.0682 498.697 62.6591C499.777 64.2386 500.317 66.0739 500.317 68.1648C500.317 69.4943 500.05 70.8125 499.516 72.1193C498.982 73.4261 498.021 74.8693 496.635 76.4489C495.26 78.0284 493.305 79.9205 490.771 82.125L486.595 85.9773V86.1989H500.743V93H474.902ZM505.511 93V86.9318L518.244 75.7841C519.199 74.9205 520.011 74.1307 520.682 73.4148C521.352 72.6875 521.864 71.9602 522.216 71.233C522.568 70.4943 522.744 69.6932 522.744 68.8295C522.744 67.8636 522.534 67.0398 522.114 66.358C521.693 65.6648 521.114 65.1307 520.375 64.7557C519.636 64.3807 518.79 64.1932 517.835 64.1932C516.869 64.1932 516.023 64.392 515.295 64.7898C514.568 65.1761 514 65.7386 513.591 66.4773C513.193 67.2159 512.994 68.1136 512.994 69.1705H505C505 66.7955 505.534 64.7443 506.602 63.017C507.67 61.2898 509.17 59.9602 511.102 59.0284C513.045 58.0852 515.301 57.6136 517.869 57.6136C520.517 57.6136 522.818 58.0568 524.773 58.9432C526.727 59.8295 528.239 61.0682 529.307 62.6591C530.386 64.2386 530.926 66.0739 530.926 68.1648C530.926 69.4943 530.659 70.8125 530.125 72.1193C529.591 73.4261 528.631 74.8693 527.244 76.4489C525.869 78.0284 523.915 79.9205 521.381 82.125L517.205 85.9773V86.1989H531.352V93H505.511ZM537.604 93L551.683 65.1136V64.892H535.217V58.0909H560.411V64.9432L546.28 93H537.604ZM565.043 93V86.9318L577.776 75.7841C578.73 74.9205 579.543 74.1307 580.213 73.4148C580.884 72.6875 581.395 71.9602 581.747 71.233C582.099 70.4943 582.276 69.6932 582.276 68.8295C582.276 67.8636 582.065 67.0398 581.645 66.358C581.224 65.6648 580.645 65.1307 579.906 64.7557C579.168 64.3807 578.321 64.1932 577.366 64.1932C576.401 64.1932 575.554 64.392 574.827 64.7898C574.099 65.1761 573.531 65.7386 573.122 66.4773C572.724 67.2159 572.526 68.1136 572.526 69.1705H564.531C564.531 66.7955 565.065 64.7443 566.134 63.017C567.202 61.2898 568.702 59.9602 570.634 59.0284C572.577 58.0852 574.832 57.6136 577.401 57.6136C580.048 57.6136 582.349 58.0568 584.304 58.9432C586.259 59.8295 587.77 61.0682 588.838 62.6591C589.918 64.2386 590.457 66.0739 590.457 68.1648C590.457 69.4943 590.19 70.8125 589.656 72.1193C589.122 73.4261 588.162 74.8693 586.776 76.4489C585.401 78.0284 583.446 79.9205 580.912 82.125L576.736 85.9773V86.1989H590.884V93H565.043Z" fill="#FF4D4D"/>
<path d="M224.547 73.1932V66.8182H249.092V73.1932H240.723V93H232.814V73.1932H224.547ZM264.489 93.4943C261.739 93.4943 259.375 92.9318 257.398 91.8068C255.432 90.6705 253.915 89.0909 252.847 87.0682C251.79 85.0341 251.261 82.6761 251.261 79.9943C251.261 77.3011 251.79 74.9432 252.847 72.9205C253.915 70.8864 255.432 69.3068 257.398 68.1818C259.375 67.0455 261.739 66.4773 264.489 66.4773C267.239 66.4773 269.597 67.0455 271.562 68.1818C273.54 69.3068 275.057 70.8864 276.114 72.9205C277.182 74.9432 277.716 77.3011 277.716 79.9943C277.716 82.6761 277.182 85.0341 276.114 87.0682C275.057 89.0909 273.54 90.6705 271.562 91.8068C269.597 92.9318 267.239 93.4943 264.489 93.4943ZM264.54 87.2045C265.54 87.2045 266.386 86.8977 267.08 86.2841C267.773 85.6705 268.301 84.8182 268.665 83.7273C269.04 82.6364 269.227 81.375 269.227 79.9432C269.227 78.4886 269.04 77.2159 268.665 76.125C268.301 75.0341 267.773 74.1818 267.08 73.5682C266.386 72.9545 265.54 72.6477 264.54 72.6477C263.506 72.6477 262.631 72.9545 261.915 73.5682C261.21 74.1818 260.67 75.0341 260.295 76.125C259.932 77.2159 259.75 78.4886 259.75 79.9432C259.75 81.375 259.932 82.6364 260.295 83.7273C260.67 84.8182 261.21 85.6705 261.915 86.2841C262.631 86.8977 263.506 87.2045 264.54 87.2045ZM281.986 93V66.8182H293.287C296.662 66.8182 299.321 67.4261 301.264 68.642C303.219 69.8466 304.196 71.6136 304.196 73.9432C304.196 75.2955 303.645 76.4602 302.543 77.4375C301.452 78.4034 299.901 79.0568 297.889 79.3977C299.662 79.4886 301.134 79.8409 302.304 80.4545C303.474 81.0682 304.349 81.8466 304.929 82.7898C305.509 83.733 305.798 84.7386 305.798 85.8068C305.798 87.3523 305.384 88.6591 304.554 89.7273C303.724 90.7955 302.509 91.608 300.906 92.1648C299.315 92.7216 297.361 93 295.043 93H281.986ZM289.741 86.9659H295.043C295.929 86.9659 296.622 86.7557 297.122 86.3352C297.634 85.9148 297.889 85.3352 297.889 84.5966C297.889 83.8011 297.634 83.1761 297.122 82.7216C296.622 82.267 295.929 82.0398 295.043 82.0398H289.741V86.9659ZM289.741 77.5227H293.509C294.111 77.5227 294.628 77.4318 295.06 77.25C295.491 77.0682 295.821 76.8068 296.048 76.4659C296.287 76.125 296.406 75.7159 296.406 75.2386C296.406 74.5455 296.128 74 295.571 73.6023C295.026 73.2045 294.264 73.0057 293.287 73.0057H289.741V77.5227ZM317.304 93.4432C315.634 93.4432 314.151 93.1648 312.855 92.608C311.571 92.0398 310.554 91.1875 309.804 90.0511C309.065 88.9034 308.696 87.4659 308.696 85.7386C308.696 84.2841 308.952 83.0568 309.463 82.0568C309.974 81.0568 310.679 80.2443 311.577 79.6193C312.474 78.9943 313.509 78.5227 314.679 78.2045C315.849 77.875 317.099 77.6534 318.429 77.5398C319.918 77.4034 321.116 77.2614 322.026 77.1136C322.935 76.9545 323.594 76.733 324.003 76.4489C324.423 76.1534 324.634 75.7386 324.634 75.2045V75.1193C324.634 74.2443 324.332 73.5682 323.73 73.0909C323.128 72.6136 322.315 72.375 321.293 72.375C320.19 72.375 319.304 72.6136 318.634 73.0909C317.963 73.5682 317.537 74.2273 317.355 75.0682L309.668 74.7955C309.895 73.2045 310.48 71.7841 311.423 70.5341C312.378 69.2727 313.685 68.2841 315.344 67.5682C317.014 66.8409 319.02 66.4773 321.361 66.4773C323.031 66.4773 324.571 66.6761 325.98 67.0739C327.389 67.4602 328.616 68.0284 329.662 68.7784C330.707 69.517 331.514 70.4261 332.082 71.5057C332.662 72.5852 332.952 73.8182 332.952 75.2045V93H325.111V89.3523H324.906C324.44 90.2386 323.844 90.9886 323.116 91.6023C322.401 92.2159 321.554 92.6761 320.577 92.983C319.611 93.2898 318.52 93.4432 317.304 93.4432ZM319.878 87.9886C320.776 87.9886 321.582 87.8068 322.298 87.4432C323.026 87.0795 323.605 86.5795 324.037 85.9432C324.469 85.2955 324.685 84.5455 324.685 83.6932V81.2045C324.446 81.3295 324.156 81.4432 323.815 81.5455C323.486 81.6477 323.122 81.7443 322.724 81.8352C322.327 81.9261 321.918 82.0057 321.497 82.0739C321.077 82.142 320.673 82.2045 320.287 82.2614C319.503 82.3864 318.832 82.5795 318.276 82.8409C317.73 83.1023 317.31 83.4432 317.014 83.8636C316.73 84.2727 316.588 84.7614 316.588 85.3295C316.588 86.1932 316.895 86.8523 317.509 87.3068C318.134 87.7614 318.923 87.9886 319.878 87.9886ZM338.048 102.818V66.8182H346.298V71.3011H346.554C346.895 70.5057 347.378 69.7386 348.003 69C348.639 68.2614 349.446 67.6591 350.423 67.1932C351.412 66.7159 352.594 66.4773 353.969 66.4773C355.787 66.4773 357.486 66.9545 359.065 67.9091C360.656 68.8636 361.94 70.3352 362.918 72.3239C363.895 74.3125 364.384 76.8466 364.384 79.9261C364.384 82.892 363.912 85.375 362.969 87.375C362.037 89.375 360.776 90.875 359.185 91.875C357.605 92.875 355.849 93.375 353.918 93.375C352.599 93.375 351.457 93.1591 350.491 92.7273C349.526 92.2955 348.713 91.7273 348.054 91.0227C347.406 90.3182 346.906 89.5625 346.554 88.7557H346.384V102.818H338.048ZM346.213 79.9091C346.213 81.3182 346.401 82.5455 346.776 83.5909C347.162 84.6364 347.713 85.4489 348.429 86.0284C349.156 86.5966 350.026 86.8807 351.037 86.8807C352.06 86.8807 352.929 86.5966 353.645 86.0284C354.361 85.4489 354.901 84.6364 355.264 83.5909C355.639 82.5455 355.827 81.3182 355.827 79.9091C355.827 78.5 355.639 77.2784 355.264 76.2443C354.901 75.2102 354.361 74.4091 353.645 73.8409C352.94 73.2727 352.071 72.9886 351.037 72.9886C350.014 72.9886 349.145 73.267 348.429 73.8239C347.713 74.3807 347.162 75.1761 346.776 76.2102C346.401 77.2443 346.213 78.4773 346.213 79.9091ZM380.973 93.4943C378.223 93.4943 375.859 92.9318 373.882 91.8068C371.916 90.6705 370.399 89.0909 369.331 87.0682C368.274 85.0341 367.746 82.6761 367.746 79.9943C367.746 77.3011 368.274 74.9432 369.331 72.9205C370.399 70.8864 371.916 69.3068 373.882 68.1818C375.859 67.0455 378.223 66.4773 380.973 66.4773C383.723 66.4773 386.081 67.0455 388.047 68.1818C390.024 69.3068 391.541 70.8864 392.598 72.9205C393.666 74.9432 394.2 77.3011 394.2 79.9943C394.2 82.6761 393.666 85.0341 392.598 87.0682C391.541 89.0909 390.024 90.6705 388.047 91.8068C386.081 92.9318 383.723 93.4943 380.973 93.4943ZM381.024 87.2045C382.024 87.2045 382.871 86.8977 383.564 86.2841C384.257 85.6705 384.786 84.8182 385.149 83.7273C385.524 82.6364 385.712 81.375 385.712 79.9432C385.712 78.4886 385.524 77.2159 385.149 76.125C384.786 75.0341 384.257 74.1818 383.564 73.5682C382.871 72.9545 382.024 72.6477 381.024 72.6477C379.99 72.6477 379.115 72.9545 378.399 73.5682C377.695 74.1818 377.155 75.0341 376.78 76.125C376.416 77.2159 376.234 78.4886 376.234 79.9432C376.234 81.375 376.416 82.6364 376.78 83.7273C377.155 84.8182 377.695 85.6705 378.399 86.2841C379.115 86.8977 379.99 87.2045 381.024 87.2045ZM398.47 93V66.8182H409.771C413.146 66.8182 415.805 67.4261 417.749 68.642C419.703 69.8466 420.68 71.6136 420.68 73.9432C420.68 75.2955 420.129 76.4602 419.027 77.4375C417.936 78.4034 416.385 79.0568 414.374 79.3977C416.146 79.4886 417.618 79.8409 418.788 80.4545C419.959 81.0682 420.834 81.8466 421.413 82.7898C421.993 83.733 422.283 84.7386 422.283 85.8068C422.283 87.3523 421.868 88.6591 421.038 89.7273C420.209 90.7955 418.993 91.608 417.391 92.1648C415.8 92.7216 413.845 93 411.527 93H398.47ZM406.226 86.9659H411.527C412.413 86.9659 413.107 86.7557 413.607 86.3352C414.118 85.9148 414.374 85.3352 414.374 84.5966C414.374 83.8011 414.118 83.1761 413.607 82.7216C413.107 82.267 412.413 82.0398 411.527 82.0398H406.226V86.9659ZM406.226 77.5227H409.993C410.595 77.5227 411.112 77.4318 411.544 77.25C411.976 77.0682 412.305 76.8068 412.533 76.4659C412.771 76.125 412.891 75.7159 412.891 75.2386C412.891 74.5455 412.612 74 412.055 73.6023C411.51 73.2045 410.749 73.0057 409.771 73.0057H406.226V77.5227ZM436.72 93V66.8182H448.021C451.396 66.8182 454.055 67.4261 455.999 68.642C457.953 69.8466 458.93 71.6136 458.93 73.9432C458.93 75.2955 458.379 76.4602 457.277 77.4375C456.186 78.4034 454.635 79.0568 452.624 79.3977C454.396 79.4886 455.868 79.8409 457.038 80.4545C458.209 81.0682 459.084 81.8466 459.663 82.7898C460.243 83.733 460.533 84.7386 460.533 85.8068C460.533 87.3523 460.118 88.6591 459.288 89.7273C458.459 90.7955 457.243 91.608 455.641 92.1648C454.05 92.7216 452.095 93 449.777 93H436.72ZM444.476 86.9659H449.777C450.663 86.9659 451.357 86.7557 451.857 86.3352C452.368 85.9148 452.624 85.3352 452.624 84.5966C452.624 83.8011 452.368 83.1761 451.857 82.7216C451.357 82.267 450.663 82.0398 449.777 82.0398H444.476V86.9659ZM444.476 77.5227H448.243C448.845 77.5227 449.362 77.4318 449.794 77.25C450.226 77.0682 450.555 76.8068 450.783 76.4659C451.021 76.125 451.141 75.7159 451.141 75.2386C451.141 74.5455 450.862 74 450.305 73.6023C449.76 73.2045 448.999 73.0057 448.021 73.0057H444.476V77.5227ZM621.885 84.1023L628.294 66.8182H634.396L624.561 93H619.209L609.629 66.8182H615.714L621.885 84.1023ZM613.925 66.8182V93H606.033V66.8182H613.925ZM630.322 93V66.8182H638.112V93H630.322ZM650.538 93.4432C648.868 93.4432 647.385 93.1648 646.089 92.608C644.805 92.0398 643.788 91.1875 643.038 90.0511C642.3 88.9034 641.93 87.4659 641.93 85.7386C641.93 84.2841 642.186 83.0568 642.697 82.0568C643.209 81.0568 643.913 80.2443 644.811 79.6193C645.709 78.9943 646.743 78.5227 647.913 78.2045C649.084 77.875 650.334 77.6534 651.663 77.5398C653.152 77.4034 654.351 77.2614 655.26 77.1136C656.169 76.9545 656.828 76.733 657.237 76.4489C657.658 76.1534 657.868 75.7386 657.868 75.2045V75.1193C657.868 74.2443 657.567 73.5682 656.964 73.0909C656.362 72.6136 655.55 72.375 654.527 72.375C653.425 72.375 652.538 72.6136 651.868 73.0909C651.197 73.5682 650.771 74.2273 650.589 75.0682L642.902 74.7955C643.129 73.2045 643.714 71.7841 644.658 70.5341C645.612 69.2727 646.919 68.2841 648.578 67.5682C650.249 66.8409 652.254 66.4773 654.595 66.4773C656.266 66.4773 657.805 66.6761 659.214 67.0739C660.624 67.4602 661.851 68.0284 662.896 68.7784C663.942 69.517 664.749 70.4261 665.317 71.5057C665.896 72.5852 666.186 73.8182 666.186 75.2045V93H658.345V89.3523H658.141C657.675 90.2386 657.078 90.9886 656.351 91.6023C655.635 92.2159 654.788 92.6761 653.811 92.983C652.845 93.2898 651.754 93.4432 650.538 93.4432ZM653.112 87.9886C654.01 87.9886 654.817 87.8068 655.533 87.4432C656.26 87.0795 656.839 86.5795 657.271 85.9432C657.703 85.2955 657.919 84.5455 657.919 83.6932V81.2045C657.68 81.3295 657.391 81.4432 657.05 81.5455C656.72 81.6477 656.357 81.7443 655.959 81.8352C655.561 81.9261 655.152 82.0057 654.732 82.0739C654.311 82.142 653.908 82.2045 653.521 82.2614C652.737 82.3864 652.067 82.5795 651.51 82.8409C650.964 83.1023 650.544 83.4432 650.249 83.8636C649.964 84.2727 649.822 84.7614 649.822 85.3295C649.822 86.1932 650.129 86.8523 650.743 87.3068C651.368 87.7614 652.158 87.9886 653.112 87.9886ZM689.794 66.8182V73.1932H679.345V93H671.283V66.8182H689.794ZM700.32 93.4432C698.649 93.4432 697.166 93.1648 695.871 92.608C694.587 92.0398 693.57 91.1875 692.82 90.0511C692.081 88.9034 691.712 87.4659 691.712 85.7386C691.712 84.2841 691.967 83.0568 692.479 82.0568C692.99 81.0568 693.695 80.2443 694.592 79.6193C695.49 78.9943 696.524 78.5227 697.695 78.2045C698.865 77.875 700.115 77.6534 701.445 77.5398C702.933 77.4034 704.132 77.2614 705.041 77.1136C705.95 76.9545 706.609 76.733 707.018 76.4489C707.439 76.1534 707.649 75.7386 707.649 75.2045V75.1193C707.649 74.2443 707.348 73.5682 706.746 73.0909C706.143 72.6136 705.331 72.375 704.308 72.375C703.206 72.375 702.32 72.6136 701.649 73.0909C700.979 73.5682 700.553 74.2273 700.371 75.0682L692.683 74.7955C692.911 73.2045 693.496 71.7841 694.439 70.5341C695.393 69.2727 696.7 68.2841 698.359 67.5682C700.03 66.8409 702.036 66.4773 704.376 66.4773C706.047 66.4773 707.587 66.6761 708.996 67.0739C710.405 67.4602 711.632 68.0284 712.678 68.7784C713.723 69.517 714.53 70.4261 715.098 71.5057C715.678 72.5852 715.967 73.8182 715.967 75.2045V93H708.126V89.3523H707.922C707.456 90.2386 706.859 90.9886 706.132 91.6023C705.416 92.2159 704.57 92.6761 703.592 92.983C702.626 93.2898 701.536 93.4432 700.32 93.4432ZM702.893 87.9886C703.791 87.9886 704.598 87.8068 705.314 87.4432C706.041 87.0795 706.621 86.5795 707.053 85.9432C707.484 85.2955 707.7 84.5455 707.7 83.6932V81.2045C707.462 81.3295 707.172 81.4432 706.831 81.5455C706.501 81.6477 706.138 81.7443 705.74 81.8352C705.342 81.9261 704.933 82.0057 704.513 82.0739C704.092 82.142 703.689 82.2045 703.303 82.2614C702.518 82.3864 701.848 82.5795 701.291 82.8409C700.746 83.1023 700.325 83.4432 700.03 83.8636C699.746 84.2727 699.604 84.7614 699.604 85.3295C699.604 86.1932 699.911 86.8523 700.524 87.3068C701.149 87.7614 701.939 87.9886 702.893 87.9886ZM719.82 85.3295H727.763C727.786 86.1023 728.121 86.7159 728.768 87.1705C729.428 87.625 730.274 87.8523 731.308 87.8523C732.354 87.8523 733.217 87.6023 733.899 87.1023C734.592 86.5909 734.939 85.8864 734.939 84.9886C734.939 84.4432 734.797 83.9659 734.513 83.5568C734.24 83.1364 733.854 82.8068 733.354 82.5682C732.865 82.3295 732.297 82.2102 731.649 82.2102H728.138V77.0795H731.649C732.615 77.0795 733.376 76.8523 733.933 76.3977C734.49 75.9432 734.768 75.3693 734.768 74.6761C734.768 73.892 734.484 73.2557 733.916 72.767C733.359 72.2784 732.615 72.0341 731.683 72.0341C730.763 72.0341 730.001 72.2443 729.399 72.6648C728.797 73.0852 728.49 73.6307 728.479 74.3011H720.536C720.547 72.6761 721.03 71.2841 721.984 70.125C722.95 68.9545 724.246 68.0568 725.871 67.4318C727.507 66.7955 729.325 66.4773 731.325 66.4773C733.564 66.4773 735.49 66.7727 737.104 67.3636C738.729 67.9432 739.973 68.7841 740.837 69.8864C741.7 70.9773 742.132 72.3068 742.132 73.875C742.132 75.2386 741.661 76.392 740.717 77.3352C739.786 78.2784 738.439 78.9489 736.678 79.3466V79.6193C737.78 79.6761 738.791 79.9545 739.712 80.4545C740.632 80.9432 741.376 81.6364 741.945 82.5341C742.513 83.4205 742.797 84.4943 742.797 85.7557C742.797 87.3807 742.303 88.7727 741.314 89.9318C740.325 91.0795 738.967 91.9602 737.24 92.5739C735.524 93.1875 733.553 93.4943 731.325 93.4943C729.155 93.4943 727.212 93.1932 725.496 92.5909C723.791 91.9773 722.433 91.0625 721.422 89.8466C720.411 88.6307 719.876 87.125 719.82 85.3295ZM754.784 82.2102L763.153 66.8182H771.165V93H763.273V77.5568L754.92 93H746.892V66.8182H754.784V82.2102ZM794.93 76.6534V83.0114H781.499V76.6534H794.93ZM784.362 66.8182V93H776.47V66.8182H784.362ZM799.959 66.8182V93H792.118V66.8182H799.959ZM812.398 93.4432C810.727 93.4432 809.244 93.1648 807.949 92.608C806.665 92.0398 805.648 91.1875 804.898 90.0511C804.159 88.9034 803.79 87.4659 803.79 85.7386C803.79 84.2841 804.045 83.0568 804.557 82.0568C805.068 81.0568 805.773 80.2443 806.67 79.6193C807.568 78.9943 808.602 78.5227 809.773 78.2045C810.943 77.875 812.193 77.6534 813.523 77.5398C815.011 77.4034 816.21 77.2614 817.119 77.1136C818.028 76.9545 818.688 76.733 819.097 76.4489C819.517 76.1534 819.727 75.7386 819.727 75.2045V75.1193C819.727 74.2443 819.426 73.5682 818.824 73.0909C818.222 72.6136 817.409 72.375 816.386 72.375C815.284 72.375 814.398 72.6136 813.727 73.0909C813.057 73.5682 812.631 74.2273 812.449 75.0682L804.761 74.7955C804.989 73.2045 805.574 71.7841 806.517 70.5341C807.472 69.2727 808.778 68.2841 810.438 67.5682C812.108 66.8409 814.114 66.4773 816.455 66.4773C818.125 66.4773 819.665 66.6761 821.074 67.0739C822.483 67.4602 823.71 68.0284 824.756 68.7784C825.801 69.517 826.608 70.4261 827.176 71.5057C827.756 72.5852 828.045 73.8182 828.045 75.2045V93H820.205V89.3523H820C819.534 90.2386 818.938 90.9886 818.21 91.6023C817.494 92.2159 816.648 92.6761 815.67 92.983C814.705 93.2898 813.614 93.4432 812.398 93.4432ZM814.972 87.9886C815.869 87.9886 816.676 87.8068 817.392 87.4432C818.119 87.0795 818.699 86.5795 819.131 85.9432C819.563 85.2955 819.778 84.5455 819.778 83.6932V81.2045C819.54 81.3295 819.25 81.4432 818.909 81.5455C818.58 81.6477 818.216 81.7443 817.818 81.8352C817.42 81.9261 817.011 82.0057 816.591 82.0739C816.17 82.142 815.767 82.2045 815.381 82.2614C814.597 82.3864 813.926 82.5795 813.369 82.8409C812.824 83.1023 812.403 83.4432 812.108 83.8636C811.824 84.2727 811.682 84.7614 811.682 85.3295C811.682 86.1932 811.989 86.8523 812.602 87.3068C813.227 87.7614 814.017 87.9886 814.972 87.9886ZM840.233 66.8182L844.545 75.4432L849.011 66.8182H857.415L850.102 79.9091L857.688 93H849.352L844.545 84.3068L839.858 93H831.403L839.006 79.9091L831.778 66.8182H840.233ZM61.1023 148.653V155.011H47.6705V148.653H61.1023ZM50.5341 138.818V165H42.642V138.818H50.5341ZM66.1307 138.818V165H58.2898V138.818H66.1307ZM78.5696 165.443C76.8991 165.443 75.4162 165.165 74.1207 164.608C72.8366 164.04 71.8196 163.187 71.0696 162.051C70.331 160.903 69.9616 159.466 69.9616 157.739C69.9616 156.284 70.2173 155.057 70.7287 154.057C71.2401 153.057 71.9446 152.244 72.8423 151.619C73.7401 150.994 74.7741 150.523 75.9446 150.205C77.1151 149.875 78.3651 149.653 79.6946 149.54C81.1832 149.403 82.3821 149.261 83.2912 149.114C84.2003 148.955 84.8594 148.733 85.2685 148.449C85.6889 148.153 85.8991 147.739 85.8991 147.205V147.119C85.8991 146.244 85.598 145.568 84.9957 145.091C84.3935 144.614 83.581 144.375 82.5582 144.375C81.456 144.375 80.5696 144.614 79.8991 145.091C79.2287 145.568 78.8026 146.227 78.6207 147.068L70.9332 146.795C71.1605 145.205 71.7457 143.784 72.6889 142.534C73.6435 141.273 74.9503 140.284 76.6094 139.568C78.2798 138.841 80.2855 138.477 82.6264 138.477C84.2969 138.477 85.8366 138.676 87.2457 139.074C88.6548 139.46 89.8821 140.028 90.9276 140.778C91.973 141.517 92.7798 142.426 93.348 143.506C93.9276 144.585 94.2173 145.818 94.2173 147.205V165H86.3764V161.352H86.1719C85.706 162.239 85.1094 162.989 84.3821 163.602C83.6662 164.216 82.8196 164.676 81.8423 164.983C80.8764 165.29 79.7855 165.443 78.5696 165.443ZM81.1435 159.989C82.0412 159.989 82.848 159.807 83.5639 159.443C84.2912 159.08 84.8707 158.58 85.3026 157.943C85.7344 157.295 85.9503 156.545 85.9503 155.693V153.205C85.7116 153.33 85.4219 153.443 85.081 153.545C84.7514 153.648 84.3878 153.744 83.9901 153.835C83.5923 153.926 83.1832 154.006 82.7628 154.074C82.3423 154.142 81.9389 154.205 81.5526 154.261C80.7685 154.386 80.098 154.58 79.5412 154.841C78.9957 155.102 78.5753 155.443 78.2798 155.864C77.9957 156.273 77.8537 156.761 77.8537 157.33C77.8537 158.193 78.1605 158.852 78.7741 159.307C79.3991 159.761 80.1889 159.989 81.1435 159.989ZM107.206 154.21L115.575 138.818H123.587V165H115.695V149.557L107.342 165H99.3139V138.818H107.206V154.21ZM114.825 129.545H120.314C120.303 131.682 119.496 133.398 117.893 134.693C116.303 135.989 114.143 136.636 111.416 136.636C108.689 136.636 106.524 135.989 104.922 134.693C103.331 133.398 102.541 131.682 102.553 129.545H107.99C107.979 130.295 108.234 130.977 108.757 131.591C109.28 132.205 110.166 132.511 111.416 132.511C112.632 132.511 113.501 132.21 114.024 131.608C114.547 131.006 114.814 130.318 114.825 129.545ZM127.085 172.722V158.574H129.045C129.636 158.278 130.108 157.71 130.46 156.869C130.813 156.017 131.091 155.023 131.295 153.886C131.511 152.739 131.67 151.545 131.773 150.307C131.886 149.057 131.989 147.881 132.08 146.778L132.693 138.818H153.898V158.574H157.989V172.722H150.08V165H135.199V172.722H127.085ZM137.159 158.574H146.125V145.023H139.648L139.511 146.778C139.352 149.597 139.102 151.96 138.761 153.869C138.42 155.778 137.886 157.347 137.159 158.574ZM169.737 154.21L178.107 138.818H186.118V165H178.226V149.557L169.874 165H161.845V138.818H169.737V154.21ZM199.929 160.227L199.776 162.119C199.639 163.687 199.361 165.216 198.94 166.705C198.531 168.205 198.094 169.551 197.628 170.744C197.162 171.938 196.793 172.864 196.52 173.523H191.27C191.452 172.864 191.696 171.938 192.003 170.744C192.321 169.551 192.616 168.205 192.889 166.705C193.162 165.205 193.315 163.682 193.349 162.136L193.384 160.227H199.929ZM226.661 165.494C223.899 165.494 221.53 164.926 219.553 163.79C217.587 162.653 216.075 161.074 215.018 159.051C213.962 157.017 213.433 154.665 213.433 151.994C213.433 149.312 213.962 146.96 215.018 144.938C216.087 142.903 217.604 141.318 219.57 140.182C221.547 139.045 223.905 138.477 226.643 138.477C229.064 138.477 231.172 138.915 232.967 139.79C234.774 140.665 236.183 141.903 237.195 143.506C238.217 145.097 238.757 146.966 238.814 149.114H231.024C230.865 147.773 230.411 146.722 229.661 145.96C228.922 145.199 227.956 144.818 226.763 144.818C225.797 144.818 224.95 145.091 224.223 145.636C223.496 146.17 222.928 146.966 222.518 148.023C222.121 149.068 221.922 150.364 221.922 151.909C221.922 153.455 222.121 154.761 222.518 155.83C222.928 156.886 223.496 157.687 224.223 158.233C224.95 158.767 225.797 159.034 226.763 159.034C227.536 159.034 228.217 158.869 228.808 158.54C229.411 158.21 229.905 157.727 230.291 157.091C230.678 156.443 230.922 155.659 231.024 154.739H238.814C238.734 156.898 238.195 158.784 237.195 160.398C236.206 162.011 234.814 163.267 233.018 164.165C231.234 165.051 229.115 165.494 226.661 165.494ZM243.08 174.818V138.818H251.33V143.301H251.585C251.926 142.506 252.409 141.739 253.034 141C253.67 140.261 254.477 139.659 255.455 139.193C256.443 138.716 257.625 138.477 259 138.477C260.818 138.477 262.517 138.955 264.097 139.909C265.688 140.864 266.972 142.335 267.949 144.324C268.926 146.312 269.415 148.847 269.415 151.926C269.415 154.892 268.943 157.375 268 159.375C267.068 161.375 265.807 162.875 264.216 163.875C262.636 164.875 260.881 165.375 258.949 165.375C257.631 165.375 256.489 165.159 255.523 164.727C254.557 164.295 253.744 163.727 253.085 163.023C252.438 162.318 251.938 161.562 251.585 160.756H251.415V174.818H243.08ZM251.244 151.909C251.244 153.318 251.432 154.545 251.807 155.591C252.193 156.636 252.744 157.449 253.46 158.028C254.188 158.597 255.057 158.881 256.068 158.881C257.091 158.881 257.96 158.597 258.676 158.028C259.392 157.449 259.932 156.636 260.295 155.591C260.67 154.545 260.858 153.318 260.858 151.909C260.858 150.5 260.67 149.278 260.295 148.244C259.932 147.21 259.392 146.409 258.676 145.841C257.972 145.273 257.102 144.989 256.068 144.989C255.045 144.989 254.176 145.267 253.46 145.824C252.744 146.381 252.193 147.176 251.807 148.21C251.432 149.244 251.244 150.477 251.244 151.909ZM281.163 165.443C279.493 165.443 278.01 165.165 276.714 164.608C275.43 164.04 274.413 163.187 273.663 162.051C272.925 160.903 272.555 159.466 272.555 157.739C272.555 156.284 272.811 155.057 273.322 154.057C273.834 153.057 274.538 152.244 275.436 151.619C276.334 150.994 277.368 150.523 278.538 150.205C279.709 149.875 280.959 149.653 282.288 149.54C283.777 149.403 284.976 149.261 285.885 149.114C286.794 148.955 287.453 148.733 287.862 148.449C288.283 148.153 288.493 147.739 288.493 147.205V147.119C288.493 146.244 288.192 145.568 287.589 145.091C286.987 144.614 286.175 144.375 285.152 144.375C284.05 144.375 283.163 144.614 282.493 145.091C281.822 145.568 281.396 146.227 281.214 147.068L273.527 146.795C273.754 145.205 274.339 143.784 275.283 142.534C276.237 141.273 277.544 140.284 279.203 139.568C280.874 138.841 282.879 138.477 285.22 138.477C286.891 138.477 288.43 138.676 289.839 139.074C291.249 139.46 292.476 140.028 293.521 140.778C294.567 141.517 295.374 142.426 295.942 143.506C296.521 144.585 296.811 145.818 296.811 147.205V165H288.97V161.352H288.766C288.3 162.239 287.703 162.989 286.976 163.602C286.26 164.216 285.413 164.676 284.436 164.983C283.47 165.29 282.379 165.443 281.163 165.443ZM283.737 159.989C284.635 159.989 285.442 159.807 286.158 159.443C286.885 159.08 287.464 158.58 287.896 157.943C288.328 157.295 288.544 156.545 288.544 155.693V153.205C288.305 153.33 288.016 153.443 287.675 153.545C287.345 153.648 286.982 153.744 286.584 153.835C286.186 153.926 285.777 154.006 285.357 154.074C284.936 154.142 284.533 154.205 284.146 154.261C283.362 154.386 282.692 154.58 282.135 154.841C281.589 155.102 281.169 155.443 280.874 155.864C280.589 156.273 280.447 156.761 280.447 157.33C280.447 158.193 280.754 158.852 281.368 159.307C281.993 159.761 282.783 159.989 283.737 159.989ZM301.908 165V138.818H313.209C316.584 138.818 319.243 139.426 321.186 140.642C323.141 141.847 324.118 143.614 324.118 145.943C324.118 147.295 323.567 148.46 322.464 149.438C321.374 150.403 319.822 151.057 317.811 151.398C319.584 151.489 321.055 151.841 322.226 152.455C323.396 153.068 324.271 153.847 324.851 154.79C325.43 155.733 325.72 156.739 325.72 157.807C325.72 159.352 325.305 160.659 324.476 161.727C323.646 162.795 322.43 163.608 320.828 164.165C319.237 164.722 317.283 165 314.964 165H301.908ZM309.663 158.966H314.964C315.851 158.966 316.544 158.756 317.044 158.335C317.555 157.915 317.811 157.335 317.811 156.597C317.811 155.801 317.555 155.176 317.044 154.722C316.544 154.267 315.851 154.04 314.964 154.04H309.663V158.966ZM309.663 149.523H313.43C314.033 149.523 314.55 149.432 314.982 149.25C315.413 149.068 315.743 148.807 315.97 148.466C316.209 148.125 316.328 147.716 316.328 147.239C316.328 146.545 316.05 146 315.493 145.602C314.947 145.205 314.186 145.006 313.209 145.006H309.663V149.523ZM348.305 148.653V155.011H334.874V148.653H348.305ZM337.737 138.818V165H329.845V138.818H337.737ZM353.334 138.818V165H345.493V138.818H353.334ZM366.284 154.21L374.653 138.818H382.665V165H374.773V149.557L366.42 165H358.392V138.818H366.284V154.21ZM396.476 160.227L396.322 162.119C396.186 163.687 395.908 165.216 395.487 166.705C395.078 168.205 394.641 169.551 394.175 170.744C393.709 171.938 393.339 172.864 393.067 173.523H387.817C387.999 172.864 388.243 171.938 388.55 170.744C388.868 169.551 389.163 168.205 389.436 166.705C389.709 165.205 389.862 163.682 389.896 162.136L389.93 160.227H396.476ZM410.986 165V138.818H422.287C425.662 138.818 428.321 139.426 430.264 140.642C432.219 141.847 433.196 143.614 433.196 145.943C433.196 147.295 432.645 148.46 431.543 149.438C430.452 150.403 428.901 151.057 426.889 151.398C428.662 151.489 430.134 151.841 431.304 152.455C432.474 153.068 433.349 153.847 433.929 154.79C434.509 155.733 434.798 156.739 434.798 157.807C434.798 159.352 434.384 160.659 433.554 161.727C432.724 162.795 431.509 163.608 429.906 164.165C428.315 164.722 426.361 165 424.043 165H410.986ZM418.741 158.966H424.043C424.929 158.966 425.622 158.756 426.122 158.335C426.634 157.915 426.889 157.335 426.889 156.597C426.889 155.801 426.634 155.176 426.122 154.722C425.622 154.267 424.929 154.04 424.043 154.04H418.741V158.966ZM418.741 149.523H422.509C423.111 149.523 423.628 149.432 424.06 149.25C424.491 149.068 424.821 148.807 425.048 148.466C425.287 148.125 425.406 147.716 425.406 147.239C425.406 146.545 425.128 146 424.571 145.602C424.026 145.205 423.264 145.006 422.287 145.006H418.741V149.523ZM443.815 146.386H451.759C455.361 146.386 458.185 147.233 460.23 148.926C462.276 150.608 463.304 152.892 463.315 155.778C463.304 157.653 462.832 159.284 461.901 160.67C460.98 162.045 459.656 163.114 457.929 163.875C456.213 164.625 454.156 165 451.759 165H438.923V138.818H446.815V158.625H451.759C452.849 158.625 453.747 158.358 454.452 157.824C455.156 157.29 455.514 156.602 455.526 155.761C455.514 154.875 455.156 154.153 454.452 153.597C453.747 153.04 452.849 152.761 451.759 152.761H443.815V146.386ZM465.668 165V138.818H474.003V165H465.668ZM501.834 129.273L504.084 134.778C503.368 135.335 502.584 135.756 501.732 136.04C500.891 136.324 499.862 136.517 498.646 136.619C497.43 136.722 495.896 136.778 494.044 136.79C491.953 136.801 490.26 137.091 488.964 137.659C487.669 138.216 486.686 139.131 486.016 140.403C485.357 141.665 484.919 143.347 484.703 145.449H484.925C485.675 143.869 486.743 142.625 488.129 141.716C489.516 140.807 491.305 140.352 493.499 140.352C495.783 140.352 497.771 140.847 499.464 141.835C501.158 142.812 502.464 144.21 503.385 146.028C504.305 147.835 504.766 149.983 504.766 152.472C504.766 155.108 504.237 157.403 503.18 159.358C502.124 161.312 500.612 162.824 498.646 163.892C496.68 164.96 494.328 165.494 491.589 165.494C488.851 165.494 486.493 164.938 484.516 163.824C482.55 162.71 481.033 161.074 479.964 158.915C478.908 156.744 478.379 154.08 478.379 150.92V149.011C478.379 142.534 479.686 137.767 482.3 134.71C484.913 131.653 488.732 130.114 493.754 130.091C495.016 130.08 496.158 130.08 497.18 130.091C498.214 130.091 499.118 130.04 499.891 129.938C500.663 129.824 501.311 129.602 501.834 129.273ZM491.641 159.205C492.595 159.205 493.419 158.949 494.112 158.438C494.805 157.926 495.339 157.193 495.714 156.239C496.089 155.284 496.277 154.136 496.277 152.795C496.277 151.455 496.084 150.312 495.697 149.369C495.322 148.426 494.788 147.71 494.095 147.222C493.402 146.722 492.578 146.472 491.624 146.472C490.896 146.472 490.237 146.614 489.646 146.898C489.055 147.17 488.555 147.58 488.146 148.125C487.737 148.659 487.425 149.318 487.209 150.102C486.993 150.886 486.885 151.784 486.885 152.795C486.885 154.795 487.305 156.364 488.146 157.5C488.987 158.636 490.152 159.205 491.641 159.205ZM521.381 165.494C518.642 165.494 516.278 164.955 514.29 163.875C512.313 162.784 510.79 161.233 509.722 159.222C508.665 157.199 508.136 154.795 508.136 152.011C508.136 149.307 508.67 146.943 509.739 144.92C510.807 142.886 512.312 141.307 514.256 140.182C516.199 139.045 518.489 138.477 521.125 138.477C522.989 138.477 524.693 138.767 526.239 139.347C527.784 139.926 529.119 140.784 530.244 141.92C531.369 143.057 532.244 144.46 532.869 146.131C533.494 147.79 533.807 149.693 533.807 151.841V153.92H511.051V149.08H526.051C526.04 148.193 525.83 147.403 525.42 146.71C525.011 146.017 524.449 145.477 523.733 145.091C523.028 144.693 522.216 144.494 521.295 144.494C520.364 144.494 519.528 144.705 518.79 145.125C518.051 145.534 517.466 146.097 517.034 146.812C516.602 147.517 516.375 148.318 516.352 149.216V154.142C516.352 155.21 516.563 156.148 516.983 156.955C517.403 157.75 518 158.369 518.773 158.812C519.545 159.256 520.466 159.477 521.534 159.477C522.273 159.477 522.943 159.375 523.545 159.17C524.148 158.966 524.665 158.665 525.097 158.267C525.528 157.869 525.852 157.381 526.068 156.801L533.722 157.023C533.403 158.739 532.705 160.233 531.625 161.506C530.557 162.767 529.153 163.75 527.415 164.455C525.676 165.148 523.665 165.494 521.381 165.494ZM538.064 174.818V138.818H546.314V143.301H546.57C546.911 142.506 547.393 141.739 548.018 141C548.655 140.261 549.462 139.659 550.439 139.193C551.428 138.716 552.609 138.477 553.984 138.477C555.803 138.477 557.501 138.955 559.081 139.909C560.672 140.864 561.956 142.335 562.933 144.324C563.911 146.312 564.399 148.847 564.399 151.926C564.399 154.892 563.928 157.375 562.984 159.375C562.053 161.375 560.791 162.875 559.2 163.875C557.621 164.875 555.865 165.375 553.933 165.375C552.615 165.375 551.473 165.159 550.507 164.727C549.541 164.295 548.729 163.727 548.07 163.023C547.422 162.318 546.922 161.562 546.57 160.756H546.399V174.818H538.064ZM546.229 151.909C546.229 153.318 546.416 154.545 546.791 155.591C547.178 156.636 547.729 157.449 548.445 158.028C549.172 158.597 550.041 158.881 551.053 158.881C552.075 158.881 552.945 158.597 553.661 158.028C554.376 157.449 554.916 156.636 555.28 155.591C555.655 154.545 555.842 153.318 555.842 151.909C555.842 150.5 555.655 149.278 555.28 148.244C554.916 147.21 554.376 146.409 553.661 145.841C552.956 145.273 552.087 144.989 551.053 144.989C550.03 144.989 549.161 145.267 548.445 145.824C547.729 146.381 547.178 147.176 546.791 148.21C546.416 149.244 546.229 150.477 546.229 151.909ZM576.148 165.443C574.477 165.443 572.994 165.165 571.699 164.608C570.415 164.04 569.398 163.187 568.648 162.051C567.909 160.903 567.54 159.466 567.54 157.739C567.54 156.284 567.795 155.057 568.307 154.057C568.818 153.057 569.523 152.244 570.42 151.619C571.318 150.994 572.352 150.523 573.523 150.205C574.693 149.875 575.943 149.653 577.273 149.54C578.761 149.403 579.96 149.261 580.869 149.114C581.778 148.955 582.438 148.733 582.847 148.449C583.267 148.153 583.477 147.739 583.477 147.205V147.119C583.477 146.244 583.176 145.568 582.574 145.091C581.972 144.614 581.159 144.375 580.136 144.375C579.034 144.375 578.148 144.614 577.477 145.091C576.807 145.568 576.381 146.227 576.199 147.068L568.511 146.795C568.739 145.205 569.324 143.784 570.267 142.534C571.222 141.273 572.528 140.284 574.188 139.568C575.858 138.841 577.864 138.477 580.205 138.477C581.875 138.477 583.415 138.676 584.824 139.074C586.233 139.46 587.46 140.028 588.506 140.778C589.551 141.517 590.358 142.426 590.926 143.506C591.506 144.585 591.795 145.818 591.795 147.205V165H583.955V161.352H583.75C583.284 162.239 582.688 162.989 581.96 163.602C581.244 164.216 580.398 164.676 579.42 164.983C578.455 165.29 577.364 165.443 576.148 165.443ZM578.722 159.989C579.619 159.989 580.426 159.807 581.142 159.443C581.869 159.08 582.449 158.58 582.881 157.943C583.313 157.295 583.528 156.545 583.528 155.693V153.205C583.29 153.33 583 153.443 582.659 153.545C582.33 153.648 581.966 153.744 581.568 153.835C581.17 153.926 580.761 154.006 580.341 154.074C579.92 154.142 579.517 154.205 579.131 154.261C578.347 154.386 577.676 154.58 577.119 154.841C576.574 155.102 576.153 155.443 575.858 155.864C575.574 156.273 575.432 156.761 575.432 157.33C575.432 158.193 575.739 158.852 576.352 159.307C576.977 159.761 577.767 159.989 578.722 159.989ZM604.784 154.21L613.153 138.818H621.165V165H613.273V149.557L604.92 165H596.892V138.818H604.784V154.21ZM612.403 129.545H617.892C617.881 131.682 617.074 133.398 615.472 134.693C613.881 135.989 611.722 136.636 608.994 136.636C606.267 136.636 604.102 135.989 602.5 134.693C600.909 133.398 600.119 131.682 600.131 129.545H605.568C605.557 130.295 605.812 130.977 606.335 131.591C606.858 132.205 607.744 132.511 608.994 132.511C610.21 132.511 611.08 132.21 611.602 131.608C612.125 131.006 612.392 130.318 612.403 129.545ZM636.271 130.091L635.487 154.312H628.482L627.697 130.091H636.271ZM631.976 165.494C630.76 165.494 629.714 165.062 628.839 164.199C627.976 163.335 627.544 162.29 627.544 161.062C627.544 159.858 627.976 158.83 628.839 157.977C629.714 157.114 630.76 156.682 631.976 156.682C633.146 156.682 634.175 157.114 635.061 157.977C635.959 158.83 636.408 159.858 636.408 161.062C636.408 161.881 636.197 162.625 635.777 163.295C635.368 163.966 634.828 164.5 634.158 164.898C633.499 165.295 632.771 165.494 631.976 165.494Z" fill="#0F1113"/>
<g filter="url(#filter0_f_1362_7650)">
<circle cx="849" cy="258" r="50" fill="#FF4D4D"/>
</g>
<g filter="url(#filter1_f_1362_7650)">
<circle cx="50" cy="50" r="50" fill="#FF4D4D"/>
</g>
<g opacity="0.05">
<path fill-rule="evenodd" clip-rule="evenodd" d="M286.511 79.9707C286.447 65.5239 260.962 49.278 250.076 40.9023C228.551 24.3362 206.164 9.03831 183.984 -6.50395C161.805 -22.0462 139.565 -37.5463 118.416 -54.6096C104.683 -65.6859 88.5477 -78.161 79.2344 -93.9771C59.3942 -127.682 121.949 -122.677 138.152 -123.414C179.374 -125.298 226.655 -124.438 265.293 -141.99C288.359 -152.468 297.557 -170.041 292.603 -195.653C291.006 -203.982 286.279 -213.567 290.283 -221.681C294.559 -230.348 304.395 -235.349 312.559 -238.703C342.335 -250.921 376.57 -252.336 408.075 -253.87C442.047 -255.555 476.338 -255.062 510.071 -255.193C524.374 -255.248 539.312 -260.67 552.933 -265.077C570.789 -270.853 588.433 -277.341 606.142 -283.615C645.1 -297.383 685.243 -311.885 726.461 -315.382C752.273 -317.572 780.484 -314.611 800.536 -295.555C810.604 -285.987 815.873 -271.763 821.694 -259.128C828.74 -243.864 835.506 -228.452 843.007 -213.428C867.171 -165.04 901.669 -117.756 957.665 -115.38C966.136 -115.022 974.456 -116.189 982.887 -116.408C988.256 -116.543 993.034 -115.173 995.03 -109.245C1000.05 -94.3773 984.276 -70.9059 977.809 -59.1092C963.649 -33.2869 947.681 -8.62314 932.723 16.681C922.827 33.4155 905.697 56.2844 905.518 76.617C905.358 94.7335 928.192 107.828 940.623 116.751C952.272 125.106 973.378 136.797 974.655 153.793C975.274 162.034 970.124 168.864 964.747 174.164C955.322 183.433 944.464 189.971 935.985 200.546C922.081 217.896 910.464 241.768 912.352 265.146C913.661 281.346 922.42 291.955 933.562 302.096C938.244 306.359 942.045 309.376 942.292 316.298C942.691 327.29 938.611 338.923 935.25 349.114C923.226 385.587 906.149 420.856 887.151 453.785C877.658 470.242 867.402 486.648 854.815 500.686C846.572 509.904 835.454 520.875 822.879 520.863C808.321 520.863 792.916 515.318 778.764 511.173C752.333 503.425 726.221 494.467 700.213 485.279C640.067 464.019 580.487 441.038 521.472 416.335C479.903 398.905 437.452 381.45 398.371 358.278C390.749 353.727 383.555 348.422 376.886 342.432C369.76 336.142 360.918 333.328 351.952 331.229C296.303 318.207 235.337 328.204 179.457 334.474C165.274 336.062 151.09 337.659 136.867 338.771C124.639 339.727 110.001 342.47 98.1165 338.35C74.6995 330.239 95.1704 300.347 103.825 288.167C134.296 245.282 173.609 208.998 210.048 171.956C227.373 154.316 244.83 136.722 261.213 118.083C269.744 108.392 286.567 92.6354 286.511 79.9707Z" stroke="#FF4D4D"/>
<path fill-rule="evenodd" clip-rule="evenodd" d="M297.011 77.5354C287.672 62.2485 271.285 50.9496 257.683 40.3162C238.109 25.0082 217.92 10.5509 198.034 -4.32332C179.231 -18.389 160.387 -32.6147 142.974 -48.588C132.356 -58.3287 119.034 -69.9771 114.005 -84.3839C103.095 -115.61 161.786 -110.873 176.274 -111.69C212.295 -113.711 253.133 -114.174 286.457 -130.615C307.266 -140.882 315.814 -157.908 311.376 -181.546C309.842 -189.725 307.078 -196.707 310.577 -204.843C314.624 -214.26 323.932 -220.13 332.464 -224.274C359.193 -237.257 390.788 -240.016 419.761 -242.311C449.694 -244.682 480.881 -246.354 509.851 -244.619C521.435 -243.928 534.77 -247.849 546.235 -250.856C563.875 -255.488 581.336 -260.832 598.889 -265.801C634.562 -275.908 671.162 -285.645 708.273 -286.752C735.066 -287.553 763.001 -283.215 785.291 -266.45C807.882 -249.449 817.904 -223.095 830.432 -198.042C852.067 -154.729 881.289 -102.067 931.343 -92.9159C938.933 -91.5262 946.227 -92.28 953.809 -91.9389C957.708 -91.7662 962.146 -91.2188 964.124 -87.1633C969.257 -76.6351 955.191 -57.3854 950.458 -49.3208C937.379 -27.0347 922.674 -5.83938 908.968 16.0171C898.083 33.3718 884.285 52.6552 880.074 73.2273C874.965 98.1917 908.349 115.955 920.09 133.533C940.443 164.014 901.882 181.381 882.871 195.914C861.039 212.599 843.019 243.039 862.589 268.854C870.076 278.725 879.287 284.608 882.631 297.49C887.86 317.637 883.905 340.66 879.663 360.575C873.271 390.513 863.157 420.127 849.407 447.184C839.556 466.556 823.213 496.932 799.281 494.654C783.17 493.133 766.792 487.579 751.104 482.668C727.615 475.32 704.422 466.944 681.352 458.243C628.099 438.214 575.432 416.13 523.8 391.84C488.571 375.26 390.3 307.505 382.906 305.087C360.859 297.886 335.792 299.154 313.062 300.27C282.826 301.752 252.742 305.593 222.681 309.151C208.372 310.836 193.991 312.895 179.606 313.725C169.368 314.314 155.921 314.82 146.953 308.541C129.448 296.29 148.95 268.26 157.016 256.401C181.723 220.045 212.978 188.561 242.283 156.37C256.664 140.566 271.265 124.786 284.32 107.713C289.585 100.82 302.784 86.9771 297.011 77.5354Z" stroke="#FF4D4D"/>
<path fill-rule="evenodd" clip-rule="evenodd" d="M309.933 69.6952C284.426 39.1044 249.222 16.3529 218.838 -9.19563C203.589 -22.0226 188.243 -35.1991 175.09 -50.4777C168.248 -58.4224 159.705 -68.4691 158.387 -79.5436C154.864 -109.17 207.763 -105.164 223.595 -106.289C254.206 -108.471 288.788 -110.126 316.559 -125.245C333.526 -134.487 341.882 -149.656 338.711 -169.593C337.305 -178.439 335.116 -185.954 338.711 -194.64C342.353 -203.44 349.942 -209.649 357.627 -214.304C379.711 -227.691 407.154 -231.971 432.018 -235.16C461.185 -238.874 490.572 -240.324 519.941 -239.499C545.663 -238.787 571.262 -246.795 596.377 -252.073C629.648 -259.062 663.522 -265.165 697.569 -264.243C724.457 -263.51 751.557 -257.752 774.544 -242.448C797.901 -226.862 811.945 -203.533 824.606 -178.359C843.746 -140.304 867.599 -89.3081 909.59 -74.8551C915.697 -72.7489 921.388 -72.5172 927.687 -72.1507C930.747 -71.9738 934.697 -71.9191 936.215 -68.5533C939.865 -60.4485 926.369 -44.7361 922.603 -39.2599C910.58 -21.7782 897.547 -5.08426 885.225 12.1657C873.722 28.27 861.193 45.0524 854.047 63.9242C842.676 93.98 879.031 111.554 878.012 140.195C877.377 157.976 861.237 170.727 848.455 179.548C832.718 190.395 810.06 197.526 802.183 217.321C796.316 232.064 805.522 240.645 812.612 251.833C824.626 270.789 825.445 296.485 824.195 318.428C822.509 348.08 815.923 378.169 804.711 405.424C799.631 417.779 793.408 430.631 784.245 440.227C775.662 449.221 767.538 451.525 756.067 449.684C720.95 444.039 685.494 428.306 651.82 414.253C609.51 396.594 567.783 377.099 527.302 355.165C499.699 340.206 471.472 324.38 447.244 303.714C440.929 298.326 434.462 292.471 429.845 285.364C426.354 280.023 424.872 275.613 418.989 272.563C401.55 263.527 377.294 265.89 358.609 266.83C328.733 268.325 299.001 272.306 269.308 275.891C251.982 277.997 219.342 284.623 205.506 268.73C193.563 255.005 207.974 231.605 215.335 219.515C233.956 188.941 257.909 162.108 280.132 134.479C290.318 121.816 300.902 109.056 309.314 94.9784C311.463 91.3894 314.905 86.6335 315.497 82.2736C316.16 77.2777 313.064 73.4654 309.933 69.6952Z" stroke="#FF4D4D"/>
<path fill-rule="evenodd" clip-rule="evenodd" d="M312.125 76.8167C288.556 49.7688 260.162 27.5478 234.859 2.23679C223.514 -9.11187 212.057 -21.017 203.412 -34.8614C198.763 -42.3063 193.825 -51.6778 195.107 -60.9312C198.786 -87.4901 242.293 -85.0914 259.87 -86.647C285.988 -88.9319 315.992 -91.2337 339.086 -105.554C354.214 -114.934 359.886 -128.787 357.062 -146.653C354.03 -165.818 360.809 -179.73 376.237 -190.421C395.579 -203.814 419.995 -209.273 442.454 -213.152C469.512 -217.802 496.913 -219.864 524.322 -219.311C550.979 -218.771 576.805 -223.484 603.286 -226.549C638.396 -230.609 674.632 -232.611 709.347 -224.29C739.571 -217.043 766.871 -201.074 787.336 -176.378C808.712 -150.603 819.294 -118.13 836.651 -89.6148C847.477 -71.8288 862.573 -48.301 882.802 -41.3873C889.549 -39.0813 901.845 -42.1925 896.456 -30.848C893.376 -24.3601 887.612 -18.6689 883.058 -13.3655C875.7 -4.79499 868.098 3.53944 860.615 11.9919C844.668 30.0098 827.591 48.4113 815.639 69.747C800.578 96.6094 822.965 117.283 820.237 144.521C818.771 159.179 809.111 170.877 798.893 180.068C792.281 186.02 785.047 191.176 777.661 195.986C769.947 201.011 760.819 204.839 754.092 211.335C744.504 220.58 748.667 231.524 750.464 243.476C753.628 264.479 754.323 285.815 752.534 306.998C750.345 332.963 745.211 359.669 734.398 383.264C730.191 392.45 724.862 402.189 716.949 408.348C709.035 414.507 700.85 414.085 691.782 412.23C664.885 406.75 638.044 393.997 612.53 381.911C580.596 366.781 549.289 349.872 519.393 330.635C498.756 317.356 478.051 303.01 460.786 285.005C455.764 279.765 450.987 274.154 447.124 267.889C444.471 263.593 443.049 258.05 439.206 254.82C427.182 244.741 403.042 247.751 388.94 248.337C360.797 249.504 333.098 255.056 304.991 256.405C289.651 257.143 265.627 258.998 254.361 245.217C243.767 232.262 253.363 211.858 259.694 199.375C272.138 174.832 288.856 152.965 303.84 130.15C310 120.761 316.751 110.939 320.742 100.218C324.289 90.6653 318.165 83.7515 312.125 76.8167Z" stroke="#FF4D4D"/>
<path fill-rule="evenodd" clip-rule="evenodd" d="M317.922 77.2592C299.162 53.4578 276.546 32.3296 257.65 8.14091C246.59 -6.02458 227.542 -29.8386 236.096 -49.8092C245.48 -71.7542 278.191 -72.3519 297.099 -74.12C319.603 -76.2248 346.031 -79.1 365.29 -92.8024C371.381 -97.1341 376.57 -102.868 378.769 -110.42C381.124 -118.502 378.55 -125.575 378.214 -133.666C377.512 -150.639 387.115 -164.266 399.824 -173.624C417.786 -186.855 440.247 -193.11 461.461 -197.471C485.497 -202.39 509.931 -204.815 534.415 -204.712C557.813 -204.628 580.964 -205.175 604.386 -205.806C635.017 -206.648 666.079 -205.289 695.792 -196.705C725.062 -188.244 751.673 -172.386 772.577 -149.06C792.969 -126.299 806.728 -98.4771 818.779 -70.1377C825.616 -54.0526 837.168 -30.0154 853.477 -21.8908C860.73 -18.2747 867.847 -18.5231 860.135 -9.11869C850.424 2.72307 837.335 12.2243 826.087 22.3527C809.862 36.9686 793.229 51.8708 779.61 69.2483C770.912 80.3449 767.037 91.1132 767.635 105.481C768.098 116.426 770.198 127.257 769.136 138.245C766.649 164.033 747.398 181.718 730.378 198.186C719.43 208.777 709.431 216.856 703.795 231.922C697.129 249.729 694.331 269.102 689.876 287.591C684.983 307.894 679.331 329.014 668.649 346.896C659.142 362.817 647.578 369.957 630.271 365.667C603.276 358.982 576.669 342.514 552.704 327.279C528.312 311.779 504.338 294.351 484.125 273.046C473.213 261.541 465.764 248.032 456.073 235.673C443.883 220.156 416.305 226.033 399.916 227.346C372.71 229.527 287.104 245.843 295.003 192.995C298.3 170.937 311.284 150.579 320.78 131.113C324.716 123.035 330.412 113.34 331.302 104.083C332.272 94.0011 323.562 84.4241 317.922 77.2592Z" stroke="#FF4D4D"/>
<path fill-rule="evenodd" clip-rule="evenodd" d="M327.827 79.2802C313.491 57.7113 296.334 37.3344 284.033 14.0387C276.053 -1.04819 268.217 -21.2061 278.511 -37.169C290.13 -55.1831 315.75 -59.3823 334.575 -61.6778C353.97 -64.0406 377.124 -66.0286 392.976 -79.6877C398.02 -84.0385 402.177 -89.9056 402.951 -96.931C403.698 -103.67 401.591 -110.409 402.289 -117.27C403.853 -132.677 412.707 -145.371 424.122 -154.579C457.89 -181.817 508.148 -187.873 548.89 -188.585C569.283 -188.939 590.271 -187.081 610.795 -185.751C637.429 -184.024 664.102 -180.317 689.502 -171.384C743.507 -152.397 779.705 -110.287 804.985 -57.8871C812.941 -41.3935 819.03 -23.5479 831.499 -10.2932C837.927 -3.44898 836.522 1.46626 829.951 7.70823C819.677 17.4629 807.144 24.9179 795.74 33.0594C779.521 44.6377 762.954 56.3888 748.61 70.2584C738.723 79.8193 731.705 89.0307 729.574 103.368C728.054 113.59 728.409 124.006 727.495 134.291C725.756 153.83 719.799 173.221 709.253 189.429C700.874 202.275 690.899 213.95 680.589 225.082C667.186 239.575 655.851 254.299 645.672 271.501C632.178 294.27 613.217 336.271 581.433 325.155C546.376 312.891 513.519 281.727 491.027 251.532C483.474 241.394 477.273 228.961 467.087 221.485C451.837 210.311 436.364 210.703 418.225 210.749C391.069 210.812 331.977 217.033 331.339 174.106C331.087 157.098 338.062 141.018 341.401 124.659C345.168 106.337 337.619 93.9796 327.827 79.2802Z" stroke="#FF4D4D"/>
<path fill-rule="evenodd" clip-rule="evenodd" d="M338.505 81.2035C324.325 53.0922 292.527 6.89947 316.712 -24.3601C329.487 -40.88 352.083 -47.0882 371.038 -50.7878C386.292 -53.7803 404.688 -54.9041 416.214 -67.5897C424.685 -76.9167 420.925 -90.4904 424.17 -102.166C428.198 -116.64 437.444 -128.484 448.806 -137.386C480.556 -162.265 524.702 -169.9 562.896 -171.524C602.563 -173.208 646.269 -165.333 683.597 -150.185C730.138 -131.292 765.006 -95.5158 789.391 -50.2112C793.89 -41.8481 797.978 -33.2661 802.297 -24.802C805.2 -19.1242 809.503 -13.6316 811.791 -7.65913C815.599 2.29914 811.112 10.4392 803.918 16.9293C793.57 26.2731 780.859 32.9231 769.062 39.9352C752.93 49.5315 736.438 58.9552 721.431 70.214C711.347 77.7901 700.791 85.9511 697.182 99.0956C694.719 108.061 694.208 117.556 694.296 126.841C694.487 146.749 693.497 162.848 684.691 181.081C670.199 211.015 647.914 237.931 624.372 260.326C605.896 277.902 576.661 305.206 549.742 293.454C525.589 282.932 511.46 257.746 495.547 237.383C487.81 227.484 479.119 218.443 468.907 211.402C456.032 202.525 443.912 198.8 428.658 197.348C402.984 194.903 364.271 194.267 356.334 161.775C353.404 149.783 355.077 137.363 353.54 125.216C351.532 109.155 345.659 95.3833 338.505 81.2035Z" stroke="#FF4D4D"/>
<path fill-rule="evenodd" clip-rule="evenodd" d="M353.25 82.2444C343.152 51.4852 329.887 12.7202 354.275 -14.6175C366.089 -27.8608 382.705 -35.2641 398.788 -40.7966C410.306 -44.7616 428.594 -45.9287 435.656 -58.1186C440.842 -67.0893 441.56 -79.4646 446.252 -89.0758C452.699 -102.29 462.466 -113.173 473.924 -121.693C503.774 -143.895 542.653 -152.473 578.109 -154.93C655.149 -160.26 733.537 -117.808 774.761 -47.9639C787.053 -27.1445 802.92 -4.98531 783.056 16.2849C761.368 39.4891 728.697 50.3601 702.813 66.8479C692.922 73.143 680.319 80.7106 674.801 92.1084C671.482 98.9596 671.255 107.555 671.103 115.098C670.704 134.307 669.192 151.583 661.871 169.508C650.565 197.208 632.535 222.763 612.105 243.696C594.287 261.95 568.877 283.401 543 270.242C523.16 260.129 510.577 238.665 495.161 222.843C478.006 205.222 456.789 193.348 433.489 187.546C410.824 181.917 385.965 178.12 374.02 154.204C369.923 146 365.642 135.378 364.106 126.297C361.626 111.326 357.996 96.5929 353.25 82.2444Z" stroke="#FF4D4D"/>
<path fill-rule="evenodd" clip-rule="evenodd" d="M369.691 82.461C365.02 51.4007 364.5 19.0136 386.205 -5.46642C396.334 -16.887 409.139 -25.0007 422.088 -32.3519C431.614 -37.761 441.452 -42.3233 448.567 -51.191C455.159 -59.4016 460.17 -68.9349 466.535 -77.3603C474.93 -88.5258 484.975 -98.1913 496.284 -105.986C524.633 -125.486 559.118 -134.607 592.11 -137.77C608.081 -139.308 625.405 -140.108 641.268 -135.917C656.588 -131.873 671.737 -125.478 685.823 -118.021C715.769 -102.186 741.721 -78.9948 760.535 -49.6745C773.436 -29.5631 780.411 -10.0077 763.705 10.3944C744.872 33.3915 715.341 46.0801 691.002 61.0057C674.308 71.2426 655.598 81.2772 652.48 103.032C649.996 120.342 647.98 136.771 641.556 153.133C631.995 177.268 617.936 199.13 600.215 217.423C584.009 234.089 563.506 248.231 540.324 239.329C521.958 232.264 507.708 216.437 491.661 205.122C473.777 192.484 454.129 185.516 433.439 179.913C414.845 174.858 397.337 167.09 385.319 150.597C382.859 147.227 380.276 143.558 378.379 139.787C375.96 134.976 376.147 130.208 375.672 124.815C374.434 110.585 371.803 96.5187 369.691 82.461Z" stroke="#FF4D4D"/>
<path fill-rule="evenodd" clip-rule="evenodd" d="M387.819 79.9223C388.219 50.4197 394.943 22.5373 413.361 -0.45459C421.235 -10.2902 430.637 -18.3916 439.302 -27.4044C446.278 -34.6703 452.871 -41.4215 460.892 -47.4089C479.921 -61.5864 495.385 -79.9327 515.607 -92.5574C542.601 -109.435 573.523 -118.765 604.204 -122.495C619.186 -124.317 634.663 -124.954 649.82 -122.895C662.838 -121.127 675.306 -114.921 686.871 -108.57C709.539 -96.1312 731.549 -78.4516 746.267 -56.0842C778.717 -6.77115 714.739 29.0818 681.903 50.0779C666.801 59.7363 643.726 70.9221 637.54 90.0532C633.118 103.72 630.424 117.619 624.729 130.864C609.432 166.434 578.379 208.27 536.998 202.701C519.291 200.321 503.152 190.654 486.621 184.164C469.6 177.481 452.033 173.755 434.341 169.666C417.807 165.848 404.629 160.413 393.949 145.843C388.845 138.885 389.296 130.556 388.841 122.02C388.099 107.999 387.64 93.8972 387.819 79.9223Z" stroke="#FF4D4D"/>
<path fill-rule="evenodd" clip-rule="evenodd" d="M404.326 76.1433C410.974 31.6118 435.665 -17.004 471.971 -42.8656C514.676 -73.2873 560.942 -98.9047 611.966 -106.269C635.622 -109.684 661.536 -111.364 683.857 -100.197C700.845 -91.7046 720.578 -79.0096 729.927 -61.1566C752.8 -17.4883 701.924 17.2746 672.938 37.4772C657.332 48.3532 637.468 58.9513 625.706 74.8337C618.882 84.0424 615.398 96.2237 609.888 106.338C593.192 136.987 565.708 161.707 531.473 166.128C515.643 168.17 499.698 165.644 483.988 163.636C467.907 161.581 451.626 160.465 435.645 157.598C422.888 155.307 407.854 151.429 403.155 137.025C397.23 118.873 401.613 94.3289 404.326 76.1433Z" stroke="#FF4D4D"/>
<path fill-rule="evenodd" clip-rule="evenodd" d="M420.513 68.9898C430.209 27.1227 450.74 -13.7162 485.256 -38.71C503.56 -51.9634 524.808 -61.1122 545.207 -70.1515C568.331 -80.396 592.491 -88.348 617.166 -92.2924C647.89 -97.206 697.649 -101.635 713.701 -64.6984C729.633 -28.0357 689.373 4.4129 665.566 22.9044C650.302 34.7502 633.966 45.6226 619.382 58.5725C611.474 65.5932 605.382 73.7054 598.691 81.9398C580.195 104.755 553.827 122.817 526.952 132.458C500.904 141.805 468.68 145.944 441.185 142.855C429.321 141.527 420.841 137.048 417.253 124.313C412.281 106.609 416.505 86.2845 420.513 68.9898Z" stroke="#FF4D4D"/>
<path fill-rule="evenodd" clip-rule="evenodd" d="M436.597 57.7134C446.229 20.851 467.005 -12.8179 497.309 -34.9421C531.279 -59.7436 575.02 -73.5251 615.223 -80.5333C636.593 -84.2557 682.903 -94.3483 693.796 -65.4635C704.688 -36.5787 673.199 -8.11358 655.076 7.55631C633.08 26.5457 609.364 44.8804 585.677 61.9184C565.097 76.7322 543.136 91.8775 520.845 103.317C508.273 109.807 495.176 115.106 481.711 119.151C471.74 122.122 459.06 126.554 448.607 124.342C422.239 118.756 431.991 75.3389 436.597 57.7134Z" stroke="#FF4D4D"/>
<path fill-rule="evenodd" clip-rule="evenodd" d="M456.452 46.6749C477.585 -23.0363 544.544 -57.3215 609.014 -69.2719C623.995 -72.0458 665.992 -82.0473 674.366 -60.7521C682.48 -40.1052 656.673 -15.6194 644.591 -4.01838C607.152 31.9296 560.897 58.5832 517.066 84.9885C503.385 93.2305 478.71 111.116 461.739 102.866C443.313 93.8913 452.073 61.1299 456.452 46.6749Z" stroke="#FF4D4D"/>
<path fill-rule="evenodd" clip-rule="evenodd" d="M478.099 33.2573C496.478 -18.0799 549.935 -47.5237 599.084 -57.2302C611.122 -59.6052 641.695 -66.9999 650.812 -52.6738C659.25 -39.4216 639.114 -20.2191 631.581 -12.5886C614.81 4.40303 594.935 18.4006 575.3 31.855C557.145 44.3029 538.793 57.0624 519.69 67.5901C509.628 73.1319 490.757 84.9566 479.323 76.3997C467.013 67.1943 474.018 44.6566 478.099 33.2573Z" stroke="#FF4D4D"/>
<path fill-rule="evenodd" clip-rule="evenodd" d="M501.954 18.2585C515.962 -15.2667 553.48 -37.0369 586.575 -44.2711C595.48 -46.2134 614.728 -51.2525 622.24 -42.2993C629.156 -34.0538 618.009 -21.9659 613.063 -16.3833C591.138 8.36145 559.031 30.4644 529.614 44.0397C522.218 47.4524 508.922 54.1516 501.314 47.2629C493.509 40.1887 498.736 25.9562 501.954 18.2585Z" stroke="#FF4D4D"/>
<path fill-rule="evenodd" clip-rule="evenodd" d="M527.26 4.17595C535.154 -12.4713 555.785 -25.0312 572.874 -29.0293C584.901 -31.8407 599.358 -29.4121 588.876 -14.9212C578.464 -0.540923 559.143 12.5932 542.768 18.4159C530.274 22.8563 520.482 18.4754 527.26 4.17595Z" stroke="#FF4D4D"/>
<path fill-rule="evenodd" clip-rule="evenodd" d="M-112.845 119.477C-113.351 86.5881 -129.914 52.407 -121.734 18.895C-115.017 -8.62829 -81.2013 -10.9261 -60.9149 -23.3958C-44.7942 -33.3025 -35.6456 -50.8518 -26.9275 -67.6899C-19.0944 -82.8067 -12.0585 -98.3779 -3.80682 -113.246C1.53486 -122.859 10.7074 -141.733 22.2917 -142.074C33.3816 -142.403 43.5507 -127.694 49.9926 -118.999C58.3918 -107.666 65.8383 -95.5835 73.9943 -84.0692C87.7391 -64.6471 104.231 -50.271 123.114 -36.6651C144.603 -21.1835 166.446 -6.23089 188.645 8.19291C204.989 18.8445 221.444 29.4162 237.155 41.1199C247.009 48.4637 268.758 62.2422 268.858 75.7808C268.906 82.2408 263.106 89.3952 259.195 94.5589C252.578 103.3 245.036 111.292 237.469 119.111C223.378 133.677 208.688 147.581 194.158 161.654C175.299 179.919 157.285 197.885 140.705 218.62C123.564 240.083 107.188 262.254 90.4777 284.121C79.1606 298.934 67.8553 315.571 51.5313 324.661C31.0855 336.024 14.3031 324.042 -6.37402 323.903C-24.161 323.781 -22.8495 280.283 -25.1097 268.187C-27.378 255.945 -32.3768 244.549 -34.3142 232.277C-36.7299 216.958 -36.7618 201.286 -37.3557 185.803C-38.0773 166.865 -38.3643 148.835 -57.5425 141.614C-68.457 137.511 -80.2645 136.648 -91.5618 134.19C-98.8807 132.595 -112.685 129.868 -112.845 119.477Z" stroke="#FF4D4D"/>
<path fill-rule="evenodd" clip-rule="evenodd" d="M-104.1 113.627C-105.965 86.0575 -116.98 50.7709 -106.564 22.3124C-97.6647 -2.00718 -69.834 -5.15986 -51.0938 -17.935C-35.6234 -28.4721 -28.7365 -45.715 -21.0033 -62.6543C-14.7992 -76.243 -8.7827 -89.9622 -1.74016 -103.117C3.44991 -112.811 11.3748 -129.177 22.1661 -131.183C31.8676 -132.987 42.2717 -118.539 47.7173 -111.188C55.6621 -100.457 62.4571 -88.8032 69.4757 -77.3936C81.8081 -57.3521 94.4359 -39.3295 112.485 -24.6071C130.615 -9.82147 150.449 1.23404 170.495 12.7405C186.177 21.7434 201.779 31.0076 216.678 41.4013C227.777 49.1398 243.734 59.0446 248.813 72.844C252.833 83.7604 232.444 101.876 226.432 108.27C214.055 121.416 200.94 133.757 187.801 146.022C171.784 160.968 155.256 174.038 141.111 191.087C115.811 221.568 94.6635 259.527 62.1098 282.182C42.4753 295.846 20.6251 299.34 -1.21317 297.296C-9.86063 296.487 -11.9367 283.602 -13.0266 276.087C-14.8391 263.603 -15.0667 250.904 -16.46 238.369C-17.7655 226.635 -20.664 215.486 -22.9995 203.98C-25.363 192.322 -26.0257 180.377 -27.7664 168.639C-28.8443 161.351 -29.9103 152.871 -34.6253 147.012C-39.504 140.947 -47.5526 138.406 -54.5871 136.475C-67.7979 132.884 -102.783 133.082 -104.1 113.627Z" stroke="#FF4D4D"/>
<path fill-rule="evenodd" clip-rule="evenodd" d="M-92.8463 102.086C-95.9819 76.7793 -100.372 45.2598 -87.5977 21.9444C-77.1565 2.88037 -54.8879 -1.23215 -38.9824 -13.6539C-25.7531 -23.9835 -20.7561 -40.4125 -14.1894 -55.6797C-8.80101 -68.2025 -3.38466 -80.7799 3.14611 -92.6965C8.09912 -101.734 14.4821 -113.987 24.3162 -117.14C32.7243 -119.834 42.2229 -107.766 46.8843 -101.759C54.8211 -91.5221 61.292 -80.0517 67.7189 -68.7329C78.232 -50.2118 87.9064 -30.428 102.869 -15.3629C117.409 -0.743872 134.68 7.88525 152.275 17.5877C165.752 25.0214 179.146 32.7413 191.844 41.6061C201.594 48.4084 213.677 56.4693 218.758 67.7881C223.151 77.5496 211.871 89.1041 206.235 95.9906C196.928 107.356 186.599 117.782 176.413 128.251C165.421 139.544 153.246 149.963 142.609 161.534C120.241 185.885 102.37 212.846 74.8009 231.501C56.9461 243.586 32.9201 254.564 11.8139 252.59C-3.36469 251.167 -2.36609 215.716 -3.82403 204.389C-6.22065 185.868 -10.8501 166.408 -18.2037 149.348C-24.5188 134.729 -39.5256 130.221 -53.3301 126.942C-61.9779 124.883 -71.0411 123.772 -79.4053 120.59C-89.0876 116.903 -91.5321 112.693 -92.8463 102.086Z" stroke="#FF4D4D"/>
<path fill-rule="evenodd" clip-rule="evenodd" d="M-82.3483 90.2237C-84.2152 68.8283 -83.7954 43.528 -71.7023 25.0203C-61.1042 8.80913 -42.2349 4.54102 -28.8144 -8.22948C-18.3403 -18.1926 -14.2267 -34.4375 -8.59384 -47.6133C-1.70972 -63.7231 7.93685 -93.4773 25.3031 -99.5396C41.458 -105.176 58.3524 -69.1733 64.2011 -58.4376C73.4599 -41.4454 81.2035 -22.8111 92.4332 -7.11919C102.104 6.3901 115.06 13.8582 128.813 21.8836C146.347 32.1337 172.968 44.2879 182.343 64.2648C189.331 79.1503 166.607 101.28 158.848 111.594C150.732 122.367 144.62 135.138 136.245 145.532C123.028 161.933 101.612 175.138 83.93 185.215C66.7397 195.018 44.4163 205.867 24.9153 205.222C12.0985 204.799 9.65988 183.911 6.92542 173.707C3.00763 159.201 -2.20143 146.203 -13.3911 136.337C-24.7807 126.294 -38.2051 121.561 -52.3172 117.42C-59.5611 115.309 -67.8244 113.662 -74.3048 109.398C-81.4647 104.759 -81.6287 98.4475 -82.3483 90.2237Z" stroke="#FF4D4D"/>
<path fill-rule="evenodd" clip-rule="evenodd" d="M-69.557 77.8915C-69.4534 59.4075 -65.4487 39.6969 -53.574 25.439C-43.6838 13.563 -28.2029 9.59318 -18.735 -2.54744C-11.2357 -12.1591 -7.41823 -25.6525 -2.3974 -36.8143C3.74316 -50.4924 12.426 -74.3872 27.6957 -79.1342C42.5988 -83.7552 55.7805 -57.4365 61.4947 -47.0224C69.8627 -31.7522 76.6368 -15.5661 85.0806 -0.337785C91.6953 11.6096 99.7844 19.3099 110.555 27.0101C123.199 36.0547 140.84 46.0738 147.594 61.0375C152.463 71.8716 140.676 89.1835 136.397 98.728C133.528 105.139 130.902 111.65 129.459 118.598C128.335 124.009 128.224 129.017 124.968 133.663C116.772 145.35 98.8002 146.875 86.6068 150.727C70.4126 155.839 53.2302 161.649 36.2829 162.758C25.8667 163.451 20.551 153.323 14.6057 146.198C7.58051 137.775 -2.36552 131.718 -11.0524 125.362C-22.5166 116.96 -34.9929 111.734 -47.8997 106.382C-53.7214 103.967 -60.5593 101.597 -65.0701 96.7956C-69.7801 91.8175 -69.5928 84.5626 -69.557 77.8915Z" stroke="#FF4D4D"/>
<path fill-rule="evenodd" clip-rule="evenodd" d="M-56.123 66.9184C-54.0647 51.3944 -47.6506 36.557 -36.8169 25.5827C-28.5121 17.1572 -17.483 12.4136 -10.8176 2.29032C-4.60696 -7.14627 -0.279063 -17.8762 4.8506 -27.9658C10.2794 -38.6325 18.3449 -56.4609 30.8659 -59.3635C44.3601 -62.4894 54.7551 -44.5051 60.511 -34.5377C67.7827 -21.9415 73.3072 -8.38905 79.8091 4.64104C84.7072 14.3529 90.9553 23.2351 98.3452 30.9919C106.096 39.1689 116.606 47.0004 120.527 58.2443C123.994 68.2033 117.508 80.2518 116.363 90.3498C115.138 101.139 117.284 112.471 110.495 121.735C96.4944 140.84 61.3566 137.297 41.2688 137.706C21.4482 138.127 5.51275 126.436 -10.5264 115.315C-21.1208 107.972 -32.154 101.754 -43.0156 94.9122C-54.0886 87.9317 -57.9339 80.5804 -56.123 66.9184Z" stroke="#FF4D4D"/>
<path fill-rule="evenodd" clip-rule="evenodd" d="M-43.6413 58.0329C-37.5546 35.543 -18.5442 23.5897 -4.95399 6.59374C6.16567 -7.32012 14.5034 -36.1345 33.2304 -39.946C54.4919 -44.272 67.22 -6.09316 74.6119 8.63868C82.8139 24.9769 97.4219 38.2668 103.497 55.5622C106.69 64.6399 103.948 73.1105 102.247 82.184C100.383 92.1472 98.9825 102.334 92.5486 110.353C79.8843 126.135 55.1505 126.025 37.3374 126.46C18.8978 126.911 2.5855 116.096 -12.1063 105.302C-27.6882 93.8716 -49.8757 81.0962 -43.6413 58.0329Z" stroke="#FF4D4D"/>
<path fill-rule="evenodd" clip-rule="evenodd" d="M-33.4468 51.9347C-26.5882 35.9114 -12.1756 22.8848 -0.480719 10.5875C9.28046 0.335598 19.7814 -20.3024 34.6643 -21.7735C52.1565 -23.5087 62.7579 -1.47085 69.6405 12.0419C76.4147 25.3199 86.1758 39.3398 89.9267 53.913C93.8384 69.0939 83.422 89.5391 73.4879 100.281C62.4081 112.26 44.2808 116.686 28.7264 116.208C12.4404 115.722 -2.5029 105.822 -14.837 95.5536C-28.0235 84.5765 -41.423 70.5357 -33.4468 51.9347Z" stroke="#FF4D4D"/>
<path fill-rule="evenodd" clip-rule="evenodd" d="M-23.9869 48.9177C-17.4356 35.5906 -6.07938 24.3167 4.3915 14.2604C12.472 6.49676 24.3956 -6.70441 36.0536 -7.02772C48.8787 -7.38463 59.7479 3.69613 64.8466 15.054C69.8727 26.2565 75.1686 40.3017 75.9211 52.5917C77.5549 79.3552 44.2911 109.335 19.3131 106.895C-4.36912 104.582 -37.0494 75.4712 -23.9869 48.9177Z" stroke="#FF4D4D"/>
<path fill-rule="evenodd" clip-rule="evenodd" d="M-15.2389 47.4482C-6.20091 30.084 15.7524 5.32901 36.0767 4.7411C59.4056 4.06921 65.262 31.6168 62.2212 51.5804C59.1321 71.9555 32.2355 101.447 10.789 97.4622C-10.1427 93.5736 -25.95 68.0417 -15.2389 47.4482Z" stroke="#FF4D4D"/>
<path fill-rule="evenodd" clip-rule="evenodd" d="M-6.00195 44.6407C1.65017 30.1019 17.9792 11.9421 35.0101 11.3925C55.3028 10.7421 54.92 33.9999 50.3183 48.4757C45.5333 63.5054 24.459 89.1758 6.69045 85.1226C-10.5876 81.1659 -13.3351 58.5752 -6.00195 44.6407Z" stroke="#FF4D4D"/>
<path fill-rule="evenodd" clip-rule="evenodd" d="M2.04319 42.9675C7.09413 32.5935 19.7355 19.4818 31.7529 19.0623C46.4418 18.558 43.5864 37.005 39.7912 45.9086C35.2802 56.503 20.1594 74.9119 7.47005 71.9285C-5.02331 68.9917 -2.12393 51.5151 2.04319 42.9675Z" stroke="#FF4D4D"/>
</g>
<rect x="40" y="216" width="246" height="52" rx="8" fill="#FF4D4D"/>
<path d="M70.375 236.364V248H68.625V237.864H63.1477V248H61.3977V236.364H70.375ZM76.6847 248.176C75.8248 248.176 75.0843 247.992 74.4631 247.625C73.8456 247.254 73.3684 246.733 73.0312 246.062C72.6979 245.388 72.5312 244.598 72.5312 243.693C72.5312 242.799 72.6979 242.011 73.0312 241.33C73.3684 240.648 73.8381 240.116 74.4403 239.733C75.0464 239.35 75.7547 239.159 76.5653 239.159C77.0578 239.159 77.535 239.241 77.9972 239.403C78.4593 239.566 78.8741 239.822 79.2415 240.17C79.6089 240.519 79.8987 240.972 80.1108 241.528C80.3229 242.081 80.429 242.754 80.429 243.545V244.148H73.4915V242.875H78.7642C78.7642 242.428 78.6733 242.032 78.4915 241.688C78.3097 241.339 78.054 241.064 77.7244 240.864C77.3987 240.663 77.0161 240.562 76.5767 240.562C76.0994 240.562 75.6828 240.68 75.3267 240.915C74.9744 241.146 74.7017 241.449 74.5085 241.824C74.3191 242.195 74.2244 242.598 74.2244 243.034V244.028C74.2244 244.612 74.3267 245.108 74.5312 245.517C74.7396 245.926 75.0294 246.239 75.4006 246.455C75.7718 246.667 76.2055 246.773 76.7017 246.773C77.0237 246.773 77.3172 246.727 77.5824 246.636C77.8475 246.542 78.0767 246.402 78.2699 246.216C78.4631 246.03 78.6108 245.801 78.7131 245.528L80.321 245.818C80.1922 246.292 79.9612 246.706 79.6278 247.062C79.2983 247.415 78.8835 247.689 78.3835 247.886C77.8873 248.08 77.321 248.176 76.6847 248.176ZM82.3139 251.273V239.273H83.973V240.688H84.1151C84.2135 240.506 84.3556 240.295 84.5412 240.057C84.7268 239.818 84.9844 239.61 85.3139 239.432C85.6435 239.25 86.0791 239.159 86.6207 239.159C87.3253 239.159 87.9541 239.337 88.5071 239.693C89.0601 240.049 89.4938 240.562 89.8082 241.233C90.1264 241.903 90.2855 242.71 90.2855 243.653C90.2855 244.597 90.1283 245.405 89.8139 246.08C89.4995 246.75 89.0677 247.267 88.5185 247.631C87.9692 247.991 87.3423 248.17 86.6378 248.17C86.1075 248.17 85.6738 248.081 85.3366 247.903C85.0033 247.725 84.742 247.517 84.5526 247.278C84.3632 247.04 84.2173 246.828 84.1151 246.642H84.0128V251.273H82.3139ZM83.9787 243.636C83.9787 244.25 84.0677 244.788 84.2457 245.25C84.4238 245.712 84.6813 246.074 85.0185 246.335C85.3556 246.593 85.7685 246.722 86.2571 246.722C86.7647 246.722 87.1889 246.587 87.5298 246.318C87.8707 246.045 88.1283 245.676 88.3026 245.21C88.4806 244.744 88.5696 244.22 88.5696 243.636C88.5696 243.061 88.4825 242.544 88.3082 242.085C88.1378 241.627 87.8802 241.265 87.5355 241C87.1946 240.735 86.7685 240.602 86.2571 240.602C85.7647 240.602 85.348 240.729 85.0071 240.983C84.67 241.237 84.4143 241.591 84.2401 242.045C84.0658 242.5 83.9787 243.03 83.9787 243.636ZM95.9503 248.176C95.0904 248.176 94.3499 247.992 93.7287 247.625C93.1113 247.254 92.634 246.733 92.2969 246.062C91.9635 245.388 91.7969 244.598 91.7969 243.693C91.7969 242.799 91.9635 242.011 92.2969 241.33C92.634 240.648 93.1037 240.116 93.706 239.733C94.312 239.35 95.0204 239.159 95.831 239.159C96.3234 239.159 96.8007 239.241 97.2628 239.403C97.7249 239.566 98.1397 239.822 98.5071 240.17C98.8745 240.519 99.1643 240.972 99.3764 241.528C99.5885 242.081 99.6946 242.754 99.6946 243.545V244.148H92.7571V242.875H98.0298C98.0298 242.428 97.9389 242.032 97.7571 241.688C97.5753 241.339 97.3196 241.064 96.9901 240.864C96.6643 240.663 96.2817 240.562 95.8423 240.562C95.3651 240.562 94.9484 240.68 94.5923 240.915C94.2401 241.146 93.9673 241.449 93.7741 241.824C93.5848 242.195 93.4901 242.598 93.4901 243.034V244.028C93.4901 244.612 93.5923 245.108 93.7969 245.517C94.0052 245.926 94.295 246.239 94.6662 246.455C95.0374 246.667 95.4711 246.773 95.9673 246.773C96.2893 246.773 96.5829 246.727 96.848 246.636C97.1132 246.542 97.3423 246.402 97.5355 246.216C97.7287 246.03 97.8764 245.801 97.9787 245.528L99.5866 245.818C99.4579 246.292 99.2268 246.706 98.8935 247.062C98.5639 247.415 98.1491 247.689 97.6491 247.886C97.1529 248.08 96.5866 248.176 95.9503 248.176ZM103.244 245.619L107.091 239.273H108.92V248H107.256V241.648L103.426 248H101.58V239.273H103.244V245.619ZM106.364 236.318H107.761C107.761 236.958 107.534 237.479 107.08 237.881C106.629 238.278 106.019 238.477 105.25 238.477C104.485 238.477 103.877 238.278 103.426 237.881C102.975 237.479 102.75 236.958 102.75 236.318H104.142C104.142 236.602 104.225 236.854 104.392 237.074C104.559 237.29 104.845 237.398 105.25 237.398C105.648 237.398 105.932 237.29 106.102 237.074C106.277 236.858 106.364 236.606 106.364 236.318ZM110.122 240.739V239.273H117.486V240.739H114.639V248H112.98V240.739H110.122ZM120.947 245.619L124.794 239.273H126.624V248H124.959V241.648L121.129 248H119.283V239.273H120.947V245.619ZM133.142 248V239.273H134.841V242.932H135.659L138.54 239.273H140.642L137.261 243.517L140.682 248H138.574L135.943 244.511H134.841V248H133.142ZM146.236 248V239.273H147.935V242.932H148.753L151.634 239.273H153.736L150.355 243.517L153.776 248H151.668L149.037 244.511H147.935V248H146.236ZM157.635 248.193C157.082 248.193 156.582 248.091 156.135 247.886C155.688 247.678 155.334 247.377 155.072 246.983C154.815 246.589 154.686 246.106 154.686 245.534C154.686 245.042 154.781 244.636 154.97 244.318C155.16 244 155.415 243.748 155.737 243.562C156.059 243.377 156.419 243.237 156.817 243.142C157.214 243.047 157.62 242.975 158.033 242.926C158.555 242.866 158.98 242.816 159.305 242.778C159.631 242.737 159.868 242.67 160.016 242.58C160.163 242.489 160.237 242.341 160.237 242.136V242.097C160.237 241.6 160.097 241.216 159.817 240.943C159.54 240.67 159.127 240.534 158.578 240.534C158.006 240.534 157.555 240.661 157.226 240.915C156.9 241.165 156.675 241.443 156.55 241.75L154.953 241.386C155.143 240.856 155.419 240.428 155.783 240.102C156.15 239.773 156.572 239.534 157.05 239.386C157.527 239.235 158.029 239.159 158.555 239.159C158.904 239.159 159.273 239.201 159.663 239.284C160.057 239.364 160.425 239.511 160.766 239.727C161.11 239.943 161.393 240.252 161.612 240.653C161.832 241.051 161.942 241.568 161.942 242.205V248H160.283V246.807H160.214C160.105 247.027 159.94 247.242 159.72 247.455C159.5 247.667 159.218 247.843 158.874 247.983C158.529 248.123 158.116 248.193 157.635 248.193ZM158.004 246.83C158.474 246.83 158.875 246.737 159.209 246.551C159.546 246.366 159.802 246.123 159.976 245.824C160.154 245.521 160.243 245.197 160.243 244.852V243.727C160.182 243.788 160.065 243.845 159.891 243.898C159.72 243.947 159.525 243.991 159.305 244.028C159.086 244.062 158.872 244.095 158.663 244.125C158.455 244.152 158.281 244.174 158.141 244.193C157.811 244.235 157.51 244.305 157.237 244.403C156.968 244.502 156.752 244.644 156.589 244.83C156.43 245.011 156.351 245.254 156.351 245.557C156.351 245.977 156.506 246.295 156.817 246.511C157.127 246.723 157.523 246.83 158.004 246.83ZM163.122 240.739V239.273H170.486V240.739H167.639V248H165.98V240.739H163.122ZM175.638 248.176C174.778 248.176 174.037 247.992 173.416 247.625C172.799 247.254 172.321 246.733 171.984 246.062C171.651 245.388 171.484 244.598 171.484 243.693C171.484 242.799 171.651 242.011 171.984 241.33C172.321 240.648 172.791 240.116 173.393 239.733C174 239.35 174.708 239.159 175.518 239.159C176.011 239.159 176.488 239.241 176.95 239.403C177.412 239.566 177.827 239.822 178.195 240.17C178.562 240.519 178.852 240.972 179.064 241.528C179.276 242.081 179.382 242.754 179.382 243.545V244.148H172.445V242.875H177.717C177.717 242.428 177.626 242.032 177.445 241.688C177.263 241.339 177.007 241.064 176.678 240.864C176.352 240.663 175.969 240.562 175.53 240.562C175.053 240.562 174.636 240.68 174.28 240.915C173.928 241.146 173.655 241.449 173.462 241.824C173.272 242.195 173.178 242.598 173.178 243.034V244.028C173.178 244.612 173.28 245.108 173.484 245.517C173.693 245.926 173.982 246.239 174.354 246.455C174.725 246.667 175.159 246.773 175.655 246.773C175.977 246.773 176.27 246.727 176.536 246.636C176.801 246.542 177.03 246.402 177.223 246.216C177.416 246.03 177.564 245.801 177.666 245.528L179.274 245.818C179.145 246.292 178.914 246.706 178.581 247.062C178.251 247.415 177.837 247.689 177.337 247.886C176.84 248.08 176.274 248.176 175.638 248.176ZM186.847 239.273V240.739H182.943V248H181.267V239.273H186.847ZM191.912 248.176C191.094 248.176 190.38 247.989 189.77 247.614C189.16 247.239 188.687 246.714 188.349 246.04C188.012 245.366 187.844 244.578 187.844 243.676C187.844 242.771 188.012 241.979 188.349 241.301C188.687 240.623 189.16 240.097 189.77 239.722C190.38 239.347 191.094 239.159 191.912 239.159C192.73 239.159 193.444 239.347 194.054 239.722C194.664 240.097 195.137 240.623 195.474 241.301C195.812 241.979 195.98 242.771 195.98 243.676C195.98 244.578 195.812 245.366 195.474 246.04C195.137 246.714 194.664 247.239 194.054 247.614C193.444 247.989 192.73 248.176 191.912 248.176ZM191.918 246.75C192.448 246.75 192.887 246.61 193.236 246.33C193.584 246.049 193.842 245.676 194.009 245.21C194.179 244.744 194.264 244.231 194.264 243.67C194.264 243.114 194.179 242.602 194.009 242.136C193.842 241.667 193.584 241.29 193.236 241.006C192.887 240.722 192.448 240.58 191.918 240.58C191.384 240.58 190.94 240.722 190.588 241.006C190.24 241.29 189.98 241.667 189.81 242.136C189.643 242.602 189.56 243.114 189.56 243.67C189.56 244.231 189.643 244.744 189.81 245.21C189.98 245.676 190.24 246.049 190.588 246.33C190.94 246.61 191.384 246.75 191.918 246.75ZM197.876 251.273V239.273H199.536V240.688H199.678C199.776 240.506 199.918 240.295 200.104 240.057C200.289 239.818 200.547 239.61 200.876 239.432C201.206 239.25 201.642 239.159 202.183 239.159C202.888 239.159 203.517 239.337 204.07 239.693C204.623 240.049 205.056 240.562 205.371 241.233C205.689 241.903 205.848 242.71 205.848 243.653C205.848 244.597 205.691 245.405 205.376 246.08C205.062 246.75 204.63 247.267 204.081 247.631C203.532 247.991 202.905 248.17 202.2 248.17C201.67 248.17 201.236 248.081 200.899 247.903C200.566 247.725 200.304 247.517 200.115 247.278C199.926 247.04 199.78 246.828 199.678 246.642H199.575V251.273H197.876ZM199.541 243.636C199.541 244.25 199.63 244.788 199.808 245.25C199.986 245.712 200.244 246.074 200.581 246.335C200.918 246.593 201.331 246.722 201.82 246.722C202.327 246.722 202.751 246.587 203.092 246.318C203.433 246.045 203.691 245.676 203.865 245.21C204.043 244.744 204.132 244.22 204.132 243.636C204.132 243.061 204.045 242.544 203.871 242.085C203.7 241.627 203.443 241.265 203.098 241C202.757 240.735 202.331 240.602 201.82 240.602C201.327 240.602 200.911 240.729 200.57 240.983C200.232 241.237 199.977 241.591 199.803 242.045C199.628 242.5 199.541 243.03 199.541 243.636ZM209.416 245.619L213.263 239.273H215.092V248H213.428V241.648L209.598 248H207.751V239.273H209.416V245.619ZM222.581 248V240.722H220.49C219.994 240.722 219.607 240.837 219.331 241.068C219.054 241.299 218.916 241.602 218.916 241.977C218.916 242.348 219.043 242.648 219.297 242.875C219.554 243.098 219.914 243.21 220.376 243.21H223.075V244.585H220.376C219.732 244.585 219.176 244.479 218.706 244.267C218.24 244.051 217.88 243.746 217.626 243.352C217.376 242.958 217.251 242.492 217.251 241.955C217.251 241.405 217.38 240.932 217.638 240.534C217.899 240.133 218.272 239.822 218.757 239.602C219.246 239.383 219.823 239.273 220.49 239.273H224.178V248H222.581ZM216.854 248L219.314 243.591H221.053L218.592 248H216.854ZM231.337 245.898L234.155 239.273H235.621L231.967 248H230.706L227.126 239.273H228.575L231.337 245.898ZM228.104 239.273V248H226.439V239.273H228.104ZM234.615 248V239.273H236.268V248H234.615Z" fill="white"/>
<path d="M253.083 236.167L258.917 242L253.083 247.833" stroke="#FDFDFD" stroke-width="1.5" stroke-linecap="round" stroke-linejoin="round"/>
</g>
<defs>
<filter id="filter0_f_1362_7650" x="399" y="-192" width="900" height="900" filterUnits="userSpaceOnUse" color-interpolation-filters="sRGB">
<feFlood flood-opacity="0" result="BackgroundImageFix"/>
<feBlend mode="normal" in="SourceGraphic" in2="BackgroundImageFix" result="shape"/>
<feGaussianBlur stdDeviation="200" result="effect1_foregroundBlur_1362_7650"/>
</filter>
<filter id="filter1_f_1362_7650" x="-400" y="-400" width="900" height="900" filterUnits="userSpaceOnUse" color-interpolation-filters="sRGB">
<feFlood flood-opacity="0" result="BackgroundImageFix"/>
<feBlend mode="normal" in="SourceGraphic" in2="BackgroundImageFix" result="shape"/>
<feGaussianBlur stdDeviation="200" result="effect1_foregroundBlur_1362_7650"/>
</filter>
<clipPath id="clip0_1362_7650">
<rect width="899" height="308" rx="16" fill="white"/>
</clipPath>
</defs>
</svg>
