<svg width="351" height="60" viewBox="0 0 351 60" fill="none" xmlns="http://www.w3.org/2000/svg">
<g clip-path="url(#clip0_1263_23393)">
<path d="M74.0013 36.2918C74.0013 37.5089 73.7534 38.5964 73.2575 39.5543C72.7729 40.5122 72.1024 41.3066 71.2459 41.9377C70.2542 42.6815 69.1611 43.2111 67.9666 43.5267C66.7833 43.8422 65.2789 44 63.4532 44H52.4657V18.83H62.2361C64.2646 18.83 65.7465 18.8976 66.6819 19.0329C67.6285 19.1681 68.5639 19.4667 69.4879 19.9288C70.4458 20.4134 71.1558 21.067 71.6178 21.8896C72.0911 22.701 72.3278 23.6307 72.3278 24.6788C72.3278 25.8959 72.0066 26.9721 71.3643 27.9074C70.7219 28.8315 69.8147 29.5528 68.6427 30.0711V30.2064C70.2881 30.5332 71.5897 31.2093 72.5475 32.2349C73.5167 33.2604 74.0013 34.6127 74.0013 36.2918ZM65.6845 25.9466C65.6845 25.5296 65.5775 25.1127 65.3634 24.6957C65.1605 24.2787 64.7943 23.9688 64.2646 23.766C63.7913 23.5857 63.1997 23.4899 62.4897 23.4786C61.791 23.4561 60.8049 23.4448 59.5315 23.4448H58.923V28.7695H59.9372C60.9627 28.7695 61.8361 28.7526 62.5573 28.7188C63.2786 28.685 63.8476 28.5723 64.2646 28.3808C64.8506 28.1216 65.2338 27.7891 65.4141 27.3834C65.5944 26.9665 65.6845 26.4875 65.6845 25.9466ZM67.2735 36.1904C67.2735 35.3903 67.1157 34.7761 66.8002 34.3478C66.4959 33.9083 65.9719 33.5815 65.2281 33.3674C64.721 33.2209 64.0223 33.142 63.132 33.1308C62.2418 33.1195 61.3121 33.1139 60.3429 33.1139H58.923V39.3852H59.3963C61.2219 39.3852 62.5291 39.3796 63.318 39.3683C64.1068 39.357 64.8337 39.2105 65.4986 38.9288C66.1748 38.6471 66.6368 38.2752 66.8847 37.8132C67.1439 37.3398 67.2735 36.7989 67.2735 36.1904ZM97.1935 35.6325H83.2647C83.3548 37.1201 83.9183 38.2583 84.955 39.0471C86.0031 39.836 87.5414 40.2304 89.5698 40.2304C90.8545 40.2304 92.0998 39.9994 93.3056 39.5374C94.5114 39.0753 95.4637 38.5795 96.1624 38.0498H96.8385V42.9351C95.4637 43.4872 94.1677 43.8873 92.9506 44.1352C91.7335 44.3832 90.3869 44.5071 88.9106 44.5071C85.1015 44.5071 82.1828 43.6507 80.1543 41.9377C78.1259 40.2248 77.1116 37.785 77.1116 34.6183C77.1116 31.4854 78.0695 29.0062 79.9853 27.1806C81.9123 25.3437 84.5494 24.4252 87.8963 24.4252C90.9841 24.4252 93.3056 25.2084 94.8608 26.7749C96.4159 28.33 97.1935 30.5726 97.1935 33.5026V35.6325ZM91.1419 32.0658C91.1081 30.7924 90.7925 29.8345 90.1953 29.1921C89.598 28.5498 88.6683 28.2286 87.4061 28.2286C86.2341 28.2286 85.2706 28.5329 84.5155 29.1414C83.7605 29.75 83.3379 30.7248 83.2477 32.0658H91.1419ZM120.555 44H114.436V34.5845C114.436 33.8182 114.396 33.0575 114.317 32.3025C114.238 31.5362 114.103 30.9727 113.912 30.6121C113.686 30.1951 113.354 29.8908 112.914 29.6993C112.486 29.5077 111.883 29.4119 111.105 29.4119C110.553 29.4119 109.99 29.502 109.415 29.6824C108.852 29.8627 108.237 30.15 107.573 30.5445V44H101.487V17.6975H107.573V27.113C108.654 26.2678 109.691 25.6198 110.683 25.169C111.686 24.7182 112.796 24.4928 114.013 24.4928C116.064 24.4928 117.664 25.0901 118.814 26.2847C119.974 27.4792 120.555 29.2654 120.555 31.6432V44ZM145.573 34.5169C145.573 37.6385 144.66 40.1008 142.834 41.9039C141.02 43.6957 138.467 44.5916 135.177 44.5916C131.886 44.5916 129.328 43.6957 127.502 41.9039C125.688 40.1008 124.781 37.6385 124.781 34.5169C124.781 31.3727 125.694 28.9048 127.519 27.113C129.356 25.3211 131.909 24.4252 135.177 24.4252C138.49 24.4252 141.048 25.3268 142.851 27.1299C144.665 28.9329 145.573 31.3953 145.573 34.5169ZM138.084 39.1317C138.479 38.6471 138.772 38.0667 138.963 37.3906C139.166 36.7031 139.267 35.7565 139.267 34.5507C139.267 33.435 139.166 32.4997 138.963 31.7446C138.76 30.9896 138.479 30.3867 138.118 29.9359C137.757 29.4739 137.323 29.1471 136.816 28.9555C136.309 28.7639 135.763 28.6681 135.177 28.6681C134.591 28.6681 134.067 28.747 133.605 28.9048C133.154 29.0625 132.72 29.3781 132.303 29.8514C131.931 30.2909 131.632 30.8938 131.407 31.6601C131.193 32.4264 131.086 33.39 131.086 34.5507C131.086 35.5875 131.182 36.489 131.373 37.2553C131.565 38.0104 131.847 38.6189 132.218 39.081C132.579 39.5205 133.007 39.8416 133.503 40.0445C134.01 40.2473 134.585 40.3487 135.227 40.3487C135.78 40.3487 136.304 40.2586 136.799 40.0783C137.307 39.8867 137.735 39.5712 138.084 39.1317ZM169.34 34.5169C169.34 37.6385 168.427 40.1008 166.601 41.9039C164.787 43.6957 162.234 44.5916 158.944 44.5916C155.653 44.5916 153.095 43.6957 151.269 41.9039C149.455 40.1008 148.548 37.6385 148.548 34.5169C148.548 31.3727 149.461 28.9048 151.286 27.113C153.123 25.3211 155.676 24.4252 158.944 24.4252C162.257 24.4252 164.815 25.3268 166.618 27.1299C168.432 28.9329 169.34 31.3953 169.34 34.5169ZM161.851 39.1317C162.246 38.6471 162.539 38.0667 162.73 37.3906C162.933 36.7031 163.034 35.7565 163.034 34.5507C163.034 33.435 162.933 32.4997 162.73 31.7446C162.527 30.9896 162.246 30.3867 161.885 29.9359C161.524 29.4739 161.09 29.1471 160.583 28.9555C160.076 28.7639 159.53 28.6681 158.944 28.6681C158.358 28.6681 157.834 28.747 157.372 28.9048C156.921 29.0625 156.487 29.3781 156.07 29.8514C155.698 30.2909 155.399 30.8938 155.174 31.6601C154.96 32.4264 154.853 33.39 154.853 34.5507C154.853 35.5875 154.949 36.489 155.14 37.2553C155.332 38.0104 155.614 38.6189 155.985 39.081C156.346 39.5205 156.774 39.8416 157.27 40.0445C157.777 40.2473 158.352 40.3487 158.994 40.3487C159.547 40.3487 160.071 40.2586 160.566 40.0783C161.074 39.8867 161.502 39.5712 161.851 39.1317ZM186.007 22.1601H185.55C185.28 22.0812 184.925 21.9911 184.486 21.8896C184.057 21.7882 183.595 21.7375 183.099 21.7375C181.905 21.7375 181.093 21.9516 180.665 22.3798C180.248 22.8081 180.04 23.6364 180.04 24.8647V25.0169H184.739V29.1414H180.243V44H174.157V29.1414H171.554V25.0169H174.157V24.4928C174.157 22.1714 174.771 20.4303 176 19.2695C177.239 18.1088 179.11 17.5284 181.612 17.5284C182.513 17.5284 183.33 17.5622 184.063 17.6298C184.795 17.6862 185.443 17.7651 186.007 17.8665V22.1601Z" fill="#111111"/>
<path d="M0 49.4417L2.45449 49.4315L4.90873 49.4213L6.1646 48.0368C6.85543 47.2754 7.50196 46.5646 7.60156 46.4574C7.85117 46.1883 9.98508 43.8331 10.3049 43.4739C10.6784 43.0541 17.1782 35.8896 17.2822 35.7828C17.3302 35.7338 17.7521 35.2681 18.22 34.7479C18.6879 34.2278 19.0926 33.8022 19.1193 33.8022C19.146 33.8022 19.5507 34.2278 20.0186 34.7479C20.4865 35.2681 20.9091 35.7342 20.9576 35.7841C21.0626 35.8917 27.558 43.0515 27.9339 43.4739C28.2513 43.8307 30.3857 46.1863 30.6373 46.4574C30.7366 46.5646 31.3832 47.2754 32.074 48.0368L33.3299 49.4213L35.7841 49.4315L38.2386 49.4417V31.3453V13.2488L35.7858 13.259L33.3333 13.2691L32.9929 13.6396C32.8059 13.8434 32.4305 14.2558 32.1591 14.5561C31.8875 14.8564 31.3902 15.4048 31.054 15.7748C30.7175 16.1448 30.164 16.7547 29.8236 17.1301C28.3612 18.743 27.943 19.2039 27.2218 19.9965C26.8021 20.4577 26.3582 20.949 26.2353 21.0884C26.1125 21.2278 25.7797 21.5965 25.4958 21.9074C24.9237 22.5344 23.8951 23.6686 23.4622 24.1499C23.3078 24.3215 23.0359 24.6198 22.8578 24.8129C22.5206 25.1781 21.1844 26.6534 20.7914 27.0943C20.6671 27.2337 20.3566 27.576 20.1008 27.8548C19.8454 28.1337 19.5326 28.4803 19.4058 28.6251C19.2654 28.7854 19.1931 28.8663 19.1216 28.868C19.0485 28.8697 18.9762 28.7888 18.8327 28.6251C18.706 28.4803 18.3932 28.1337 18.1377 27.8548C17.8823 27.576 17.5715 27.2337 17.4472 27.0943C17.0541 26.6534 15.718 25.1781 15.3808 24.8129C15.2026 24.6198 14.9308 24.3215 14.7763 24.1499C14.3434 23.6686 13.3152 22.5344 12.7428 21.9074C12.4589 21.5965 12.1261 21.2278 12.0032 21.0884C11.8804 20.949 11.4365 20.4577 11.0168 19.9965C10.5971 19.5353 9.98337 18.8596 9.65276 18.495C9.32215 18.1304 8.77325 17.525 8.43286 17.1495C8.0927 16.7741 7.535 16.1599 7.19362 15.7847C6.85249 15.4092 6.35107 14.8564 6.07944 14.5561C5.80805 14.2558 5.4329 13.8434 5.2457 13.6396L4.9053 13.2691L2.45277 13.259L0 13.2488V31.3453V49.4417ZM8.60636 22.1548C8.76273 22.3297 10.6813 24.4469 12.8698 26.8595C15.0583 29.272 16.8606 31.2744 16.875 31.3092C16.9019 31.3737 16.7465 31.5609 15.8421 32.5542C15.5589 32.8652 15.0529 33.4225 14.7174 33.7925C14.3819 34.1624 13.832 34.7679 13.4955 35.1379C12.6424 36.0757 11.4088 37.4385 11.1387 37.7411C11.0143 37.8805 10.6808 38.249 10.3974 38.5601C9.87741 39.1309 9.18389 39.8952 8.03569 41.1632C7.27952 41.9981 7.06099 42.2388 6.5745 42.772C5.8149 43.6047 4.67233 44.8675 4.41122 45.1632C4.0833 45.5346 3.84495 45.7749 3.80457 45.7749C3.78793 45.7749 3.77447 39.2815 3.77447 31.3453C3.77447 23.409 3.79528 16.916 3.82073 16.9165C3.84642 16.9171 4.86957 18.0242 6.09461 19.3771C7.3199 20.7298 8.44999 21.9799 8.60636 22.1548ZM34.434 45.7749C34.3934 45.7749 34.154 45.5333 33.8278 45.1632C33.5922 44.8959 33.1292 44.3844 31.6629 42.772C31.0215 42.0666 30.8472 41.8746 30.2029 41.1632C29.8583 40.7826 29.3009 40.1682 28.9646 39.7983C27.9611 38.6944 27.341 38.0099 27.1004 37.7411C26.82 37.4275 25.5594 36.0356 24.7521 35.1477C24.4205 34.783 23.8707 34.1775 23.5303 33.8022C23.1899 33.4268 22.6796 32.8652 22.3965 32.5542C21.492 31.5609 21.3366 31.3737 21.3636 31.3092C21.378 31.2744 23.1803 29.272 25.3688 26.8595C27.5573 24.4469 29.4758 22.3297 29.6322 22.1548C31.2297 20.3672 34.3814 16.9173 34.4179 16.9165C34.4433 16.916 34.4641 23.409 34.4641 31.3453C34.4641 39.2815 34.4506 45.7749 34.434 45.7749Z" fill="#FF4D4D"/>
<path d="M38.1987 13.2488V49.4213H33.2934L16.8379 31.335L19.3659 28.6047L33.2934 13.2488H38.1987ZM34.4242 16.8961L21.3209 31.3249L34.4242 45.7545V16.8961Z" fill="#FFC5BB"/>
</g>
<path d="M198.358 26V24.8665H198.656C199.08 24.8665 199.41 24.7306 199.646 24.4588C199.881 24.187 200.05 23.7479 200.153 23.1413C200.259 22.5348 200.33 21.7311 200.366 20.7301L200.545 15.8182H206.75V26H205.517V16.9119H201.719L201.56 20.9688C201.52 22.036 201.422 22.9441 201.266 23.6932C201.111 24.4422 200.837 25.014 200.446 25.4084C200.055 25.8028 199.485 26 198.736 26H198.358ZM209.81 28.8636C209.611 28.8636 209.434 28.8471 209.278 28.8139C209.122 28.7841 209.015 28.7543 208.955 28.7244L209.253 27.6903C209.538 27.7633 209.79 27.7898 210.009 27.7699C210.228 27.75 210.422 27.6522 210.591 27.4766C210.763 27.3042 210.92 27.0241 211.063 26.6364L211.282 26.0398L208.458 18.3636H209.73L211.838 24.4489H211.918L214.026 18.3636H215.299L212.057 27.1136C211.911 27.508 211.731 27.8345 211.515 28.093C211.3 28.3549 211.05 28.5488 210.765 28.6747C210.483 28.8007 210.165 28.8636 209.81 28.8636ZM222.501 18.3636V26H221.328V18.3636H222.501ZM222.044 22.0028V23.0966C221.779 23.196 221.515 23.2839 221.253 23.3601C220.992 23.433 220.716 23.491 220.428 23.5341C220.14 23.5739 219.823 23.5938 219.479 23.5938C218.613 23.5938 217.919 23.3601 217.395 22.8928C216.875 22.4254 216.615 21.7244 216.615 20.7898V18.3438H217.788V20.7898C217.788 21.1809 217.863 21.5024 218.012 21.7543C218.161 22.0062 218.363 22.1934 218.618 22.3161C218.874 22.4387 219.16 22.5 219.479 22.5C219.976 22.5 220.425 22.4553 220.826 22.3658C221.23 22.273 221.636 22.152 222.044 22.0028ZM224.654 18.3636H225.827V24.9062H228.711V18.3636H229.884V24.9062H232.768V18.3636H233.941V26H224.654V18.3636ZM237.257 24.2699L240.936 18.3636H242.288V26H241.115V20.0938L237.456 26H236.084V18.3636H237.257V24.2699ZM247.639 26.1591C246.903 26.1591 246.268 25.9967 245.735 25.6719C245.204 25.3438 244.795 24.8864 244.507 24.2997C244.222 23.7098 244.079 23.0237 244.079 22.2415C244.079 21.4593 244.222 20.7699 244.507 20.1733C244.795 19.5734 245.196 19.1061 245.71 18.7713C246.227 18.4332 246.83 18.2642 247.52 18.2642C247.917 18.2642 248.31 18.3305 248.698 18.4631C249.086 18.5956 249.439 18.8111 249.757 19.1094C250.075 19.4044 250.328 19.7955 250.517 20.2827C250.706 20.7699 250.801 21.3698 250.801 22.0824V22.5795H244.914V21.5653H249.608C249.608 21.1345 249.521 20.75 249.349 20.4119C249.18 20.0739 248.938 19.8071 248.623 19.6115C248.312 19.416 247.944 19.3182 247.52 19.3182C247.052 19.3182 246.648 19.4342 246.306 19.6662C245.968 19.8949 245.708 20.1932 245.526 20.5611C245.344 20.929 245.252 21.3234 245.252 21.7443V22.4205C245.252 22.9972 245.352 23.486 245.551 23.8871C245.753 24.2848 246.033 24.5881 246.391 24.7969C246.749 25.0024 247.165 25.1051 247.639 25.1051C247.947 25.1051 248.225 25.062 248.474 24.9759C248.726 24.8864 248.943 24.7538 249.125 24.5781C249.308 24.3991 249.449 24.1771 249.548 23.9119L250.681 24.2301C250.562 24.6146 250.362 24.9527 250.08 25.2443C249.798 25.5327 249.45 25.758 249.036 25.9205C248.622 26.0795 248.156 26.1591 247.639 26.1591ZM262.529 18.3636V24.9062H263.603V28.4659H262.429V26H256.523V18.3636H257.696V24.9062H261.355V18.3636H262.529ZM268.529 26.1591C267.794 26.1591 267.159 25.9967 266.625 25.6719C266.095 25.3438 265.686 24.8864 265.397 24.2997C265.112 23.7098 264.97 23.0237 264.97 22.2415C264.97 21.4593 265.112 20.7699 265.397 20.1733C265.686 19.5734 266.087 19.1061 266.6 18.7713C267.118 18.4332 267.721 18.2642 268.41 18.2642C268.808 18.2642 269.201 18.3305 269.588 18.4631C269.976 18.5956 270.329 18.8111 270.647 19.1094C270.966 19.4044 271.219 19.7955 271.408 20.2827C271.597 20.7699 271.691 21.3698 271.691 22.0824V22.5795H265.805V21.5653H270.498C270.498 21.1345 270.412 20.75 270.24 20.4119C270.071 20.0739 269.829 19.8071 269.514 19.6115C269.202 19.416 268.834 19.3182 268.41 19.3182C267.943 19.3182 267.538 19.4342 267.197 19.6662C266.859 19.8949 266.599 20.1932 266.417 20.5611C266.234 20.929 266.143 21.3234 266.143 21.7443V22.4205C266.143 22.9972 266.243 23.486 266.441 23.8871C266.644 24.2848 266.924 24.5881 267.282 24.7969C267.64 25.0024 268.056 25.1051 268.529 25.1051C268.838 25.1051 269.116 25.062 269.365 24.9759C269.617 24.8864 269.834 24.7538 270.016 24.5781C270.198 24.3991 270.339 24.1771 270.439 23.9119L271.572 24.2301C271.453 24.6146 271.252 24.9527 270.971 25.2443C270.689 25.5327 270.341 25.758 269.926 25.9205C269.512 26.0795 269.047 26.1591 268.529 26.1591ZM278.587 21.6449V22.7386H274.371V21.6449H278.587ZM274.65 18.3636V26H273.476V18.3636H274.65ZM279.482 18.3636V26H278.309V18.3636H279.482ZM282.639 21.1278H284.826C285.721 21.1278 286.406 21.3549 286.88 21.8089C287.354 22.263 287.591 22.8381 287.591 23.5341C287.591 23.9915 287.484 24.4074 287.272 24.782C287.06 25.1532 286.749 25.4498 286.338 25.6719C285.927 25.8906 285.423 26 284.826 26H281.625V18.3636H282.798V24.9062H284.826C285.29 24.9062 285.672 24.7836 285.97 24.5384C286.268 24.2931 286.417 23.9782 286.417 23.5938C286.417 23.1894 286.268 22.8596 285.97 22.6044C285.672 22.3492 285.29 22.2216 284.826 22.2216H282.639V21.1278ZM288.804 26V18.3636H289.977V26H288.804ZM199.074 44V36.3636H202.196C203.018 36.3636 203.671 36.5492 204.155 36.9205C204.639 37.2917 204.881 37.7822 204.881 38.392C204.881 38.8561 204.743 39.2157 204.468 39.4709C204.193 39.7228 203.84 39.8935 203.409 39.983C203.691 40.0227 203.964 40.1222 204.229 40.2812C204.498 40.4403 204.72 40.6591 204.896 40.9375C205.071 41.2126 205.159 41.5507 205.159 41.9517C205.159 42.3428 205.06 42.6925 204.861 43.0007C204.662 43.3089 204.377 43.5526 204.006 43.7315C203.634 43.9105 203.19 44 202.673 44H199.074ZM200.188 42.9261H202.673C203.078 42.9261 203.394 42.83 203.623 42.6378C203.852 42.4455 203.966 42.1837 203.966 41.8523C203.966 41.4579 203.852 41.148 203.623 40.9226C203.394 40.6939 203.078 40.5795 202.673 40.5795H200.188V42.9261ZM200.188 39.5653H202.196C202.511 39.5653 202.781 39.5223 203.006 39.4361C203.232 39.3466 203.404 39.2206 203.523 39.0582C203.646 38.8925 203.707 38.697 203.707 38.4716C203.707 38.1501 203.573 37.8982 203.305 37.7159C203.036 37.5303 202.667 37.4375 202.196 37.4375H200.188V39.5653ZM212.046 42.2699L215.725 36.3636H217.077V44H215.904V38.0938L212.245 44H210.873V36.3636H212.046V42.2699ZM224.337 39.6449V40.7386H220.121V39.6449H224.337ZM220.4 36.3636V44H219.226V36.3636H220.4ZM225.232 36.3636V44H224.059V36.3636H225.232ZM226.336 37.4574V36.3636H232.54V37.4574H230.034V44H228.861V37.4574H226.336ZM237.057 44.1591C236.321 44.1591 235.686 43.9967 235.153 43.6719C234.622 43.3438 234.213 42.8864 233.925 42.2997C233.64 41.7098 233.497 41.0237 233.497 40.2415C233.497 39.4593 233.64 38.7699 233.925 38.1733C234.213 37.5734 234.614 37.1061 235.128 36.7713C235.645 36.4332 236.248 36.2642 236.938 36.2642C237.335 36.2642 237.728 36.3305 238.116 36.4631C238.504 36.5956 238.857 36.8111 239.175 37.1094C239.493 37.4044 239.746 37.7955 239.935 38.2827C240.124 38.7699 240.219 39.3698 240.219 40.0824V40.5795H234.332V39.5653H239.026C239.026 39.1345 238.939 38.75 238.767 38.4119C238.598 38.0739 238.356 37.8071 238.041 37.6115C237.73 37.416 237.362 37.3182 236.938 37.3182C236.47 37.3182 236.066 37.4342 235.724 37.6662C235.386 37.8949 235.126 38.1932 234.944 38.5611C234.762 38.929 234.67 39.3234 234.67 39.7443V40.4205C234.67 40.9972 234.77 41.486 234.969 41.8871C235.171 42.2848 235.451 42.5881 235.809 42.7969C236.167 43.0024 236.583 43.1051 237.057 43.1051C237.365 43.1051 237.643 43.062 237.892 42.9759C238.144 42.8864 238.361 42.7538 238.543 42.5781C238.726 42.3991 238.866 42.1771 238.966 41.9119L240.099 42.2301C239.98 42.6146 239.78 42.9527 239.498 43.2443C239.216 43.5327 238.868 43.758 238.454 43.9205C238.04 44.0795 237.574 44.1591 237.057 44.1591ZM242.004 46.8636V36.3636H243.137V37.5767H243.276C243.362 37.4441 243.482 37.2751 243.634 37.0696C243.79 36.8608 244.012 36.6752 244.3 36.5128C244.592 36.3471 244.987 36.2642 245.484 36.2642C246.127 36.2642 246.693 36.425 247.184 36.7464C247.674 37.0679 248.057 37.5237 248.332 38.1136C248.607 38.7036 248.745 39.3996 248.745 40.2017C248.745 41.0104 248.607 41.7114 248.332 42.3047C248.057 42.8946 247.676 43.352 247.189 43.6768C246.702 43.9983 246.14 44.1591 245.504 44.1591C245.013 44.1591 244.62 44.0779 244.325 43.9155C244.03 43.7498 243.803 43.5625 243.644 43.3537C243.485 43.1416 243.362 42.9659 243.276 42.8267H243.177V46.8636H242.004ZM243.157 40.1818C243.157 40.7585 243.241 41.2673 243.411 41.7081C243.58 42.1456 243.826 42.4886 244.151 42.7372C244.476 42.9825 244.874 43.1051 245.344 43.1051C245.835 43.1051 246.244 42.9759 246.572 42.7173C246.904 42.4555 247.152 42.1042 247.318 41.6634C247.487 41.2192 247.572 40.7254 247.572 40.1818C247.572 39.6449 247.489 39.161 247.323 38.7301C247.161 38.2959 246.914 37.9529 246.582 37.701C246.254 37.4458 245.842 37.3182 245.344 37.3182C244.867 37.3182 244.466 37.4392 244.141 37.6811C243.817 37.9197 243.571 38.2545 243.406 38.6854C243.24 39.1129 243.157 39.6117 243.157 40.1818ZM255.646 39.6449V40.7386H251.43V39.6449H255.646ZM251.708 36.3636V44H250.535V36.3636H251.708ZM256.54 36.3636V44H255.367V36.3636H256.54ZM261.885 44.1591C261.149 44.1591 260.514 43.9967 259.981 43.6719C259.451 43.3438 259.041 42.8864 258.753 42.2997C258.468 41.7098 258.325 41.0237 258.325 40.2415C258.325 39.4593 258.468 38.7699 258.753 38.1733C259.041 37.5734 259.442 37.1061 259.956 36.7713C260.473 36.4332 261.076 36.2642 261.766 36.2642C262.163 36.2642 262.556 36.3305 262.944 36.4631C263.332 36.5956 263.685 36.8111 264.003 37.1094C264.321 37.4044 264.575 37.7955 264.763 38.2827C264.952 38.7699 265.047 39.3698 265.047 40.0824V40.5795H259.161V39.5653H263.854C263.854 39.1345 263.768 38.75 263.595 38.4119C263.426 38.0739 263.184 37.8071 262.869 37.6115C262.558 37.416 262.19 37.3182 261.766 37.3182C261.298 37.3182 260.894 37.4342 260.553 37.6662C260.214 37.8949 259.954 38.1932 259.772 38.5611C259.59 38.929 259.499 39.3234 259.499 39.7443V40.4205C259.499 40.9972 259.598 41.486 259.797 41.8871C259.999 42.2848 260.279 42.5881 260.637 42.7969C260.995 43.0024 261.411 43.1051 261.885 43.1051C262.193 43.1051 262.472 43.062 262.72 42.9759C262.972 42.8864 263.189 42.7538 263.371 42.5781C263.554 42.3991 263.695 42.1771 263.794 41.9119L264.928 42.2301C264.808 42.6146 264.608 42.9527 264.326 43.2443C264.044 43.5327 263.696 43.758 263.282 43.9205C262.868 44.0795 262.402 44.1591 261.885 44.1591ZM266.121 37.4574V36.3636H272.325V37.4574H269.82V44H268.646V37.4574H266.121ZM278.015 39.0881V40.1818H273.561V39.0881H278.015ZM284.256 42.4091L286.921 36.3636H288.034L284.733 44H283.779L280.537 36.3636H281.631L284.256 42.4091ZM281.253 36.3636V44H280.08V36.3636H281.253ZM287.259 44V36.3636H288.432V44H287.259ZM292.827 44.179C292.343 44.179 291.904 44.0878 291.509 43.9055C291.115 43.7199 290.802 43.4531 290.57 43.1051C290.338 42.7538 290.222 42.3295 290.222 41.8324C290.222 41.3949 290.308 41.0402 290.48 40.7685C290.653 40.4934 290.883 40.2779 291.171 40.1222C291.46 39.9664 291.778 39.8504 292.126 39.7741C292.477 39.6946 292.83 39.6316 293.185 39.5852C293.649 39.5256 294.025 39.4808 294.313 39.451C294.605 39.4179 294.817 39.3632 294.95 39.2869C295.086 39.2107 295.154 39.0781 295.154 38.8892V38.8494C295.154 38.3589 295.019 37.9777 294.751 37.706C294.486 37.4342 294.083 37.2983 293.543 37.2983C292.983 37.2983 292.544 37.4209 292.225 37.6662C291.907 37.9115 291.683 38.1733 291.554 38.4517L290.441 38.054C290.639 37.59 290.905 37.2287 291.236 36.9702C291.571 36.7083 291.935 36.526 292.33 36.4233C292.727 36.3172 293.119 36.2642 293.503 36.2642C293.748 36.2642 294.03 36.294 294.348 36.3537C294.67 36.41 294.98 36.5277 295.278 36.7067C295.579 36.8857 295.83 37.1558 296.029 37.517C296.227 37.8783 296.327 38.3622 296.327 38.9688V44H295.154V42.9659H295.094C295.014 43.1316 294.882 43.3089 294.696 43.4979C294.511 43.6868 294.264 43.8475 293.955 43.9801C293.647 44.1127 293.271 44.179 292.827 44.179ZM293.006 43.125C293.47 43.125 293.861 43.0339 294.179 42.8516C294.501 42.6693 294.743 42.4339 294.905 42.1456C295.071 41.8572 295.154 41.554 295.154 41.2358V40.1619C295.104 40.2216 294.994 40.2763 294.825 40.326C294.66 40.3724 294.468 40.4138 294.249 40.4503C294.033 40.4834 293.823 40.5133 293.617 40.5398C293.415 40.563 293.251 40.5829 293.125 40.5994C292.82 40.6392 292.535 40.7038 292.27 40.7933C292.008 40.8795 291.796 41.0104 291.634 41.1861C291.475 41.3584 291.395 41.5937 291.395 41.892C291.395 42.2997 291.546 42.608 291.847 42.8168C292.152 43.0223 292.539 43.125 293.006 43.125ZM303.181 36.3636V37.4574H299.642V44H298.468V36.3636H303.181ZM306.745 44.179C306.261 44.179 305.822 44.0878 305.427 43.9055C305.033 43.7199 304.72 43.4531 304.488 43.1051C304.256 42.7538 304.14 42.3295 304.14 41.8324C304.14 41.3949 304.226 41.0402 304.398 40.7685C304.571 40.4934 304.801 40.2779 305.089 40.1222C305.378 39.9664 305.696 39.8504 306.044 39.7741C306.395 39.6946 306.748 39.6316 307.103 39.5852C307.567 39.5256 307.943 39.4808 308.231 39.451C308.523 39.4179 308.735 39.3632 308.868 39.2869C309.004 39.2107 309.072 39.0781 309.072 38.8892V38.8494C309.072 38.3589 308.937 37.9777 308.669 37.706C308.404 37.4342 308.001 37.2983 307.461 37.2983C306.901 37.2983 306.461 37.4209 306.143 37.6662C305.825 37.9115 305.601 38.1733 305.472 38.4517L304.358 38.054C304.557 37.59 304.823 37.2287 305.154 36.9702C305.489 36.7083 305.853 36.526 306.248 36.4233C306.645 36.3172 307.037 36.2642 307.421 36.2642C307.666 36.2642 307.948 36.294 308.266 36.3537C308.588 36.41 308.898 36.5277 309.196 36.7067C309.497 36.8857 309.748 37.1558 309.947 37.517C310.145 37.8783 310.245 38.3622 310.245 38.9688V44H309.072V42.9659H309.012C308.932 43.1316 308.8 43.3089 308.614 43.4979C308.429 43.6868 308.182 43.8475 307.873 43.9801C307.565 44.1127 307.189 44.179 306.745 44.179ZM306.924 43.125C307.388 43.125 307.779 43.0339 308.097 42.8516C308.419 42.6693 308.661 42.4339 308.823 42.1456C308.989 41.8572 309.072 41.554 309.072 41.2358V40.1619C309.022 40.2216 308.912 40.2763 308.743 40.326C308.578 40.3724 308.385 40.4138 308.167 40.4503C307.951 40.4834 307.741 40.5133 307.535 40.5398C307.333 40.563 307.169 40.5829 307.043 40.5994C306.738 40.6392 306.453 40.7038 306.188 40.7933C305.926 40.8795 305.714 41.0104 305.552 41.1861C305.393 41.3584 305.313 41.5937 305.313 41.892C305.313 42.2997 305.464 42.608 305.765 42.8168C306.07 43.0223 306.456 43.125 306.924 43.125ZM311.909 42.0511H313.162C313.188 42.3958 313.344 42.6577 313.629 42.8366C313.918 43.0156 314.292 43.1051 314.753 43.1051C315.223 43.1051 315.626 43.009 315.961 42.8168C316.296 42.6212 316.463 42.3063 316.463 41.8722C316.463 41.617 316.4 41.3949 316.274 41.206C316.148 41.0137 315.971 40.8646 315.742 40.7585C315.513 40.6525 315.243 40.5994 314.932 40.5994H313.619V39.5455H314.932C315.399 39.5455 315.744 39.4394 315.966 39.2273C316.191 39.0152 316.304 38.75 316.304 38.4318C316.304 38.0904 316.183 37.817 315.941 37.6115C315.699 37.4027 315.356 37.2983 314.912 37.2983C314.464 37.2983 314.092 37.3994 313.793 37.6016C313.495 37.8004 313.338 38.0573 313.321 38.3722H312.088C312.101 37.9612 312.227 37.5982 312.466 37.2834C312.705 36.9652 313.029 36.7166 313.44 36.5376C313.851 36.3554 314.322 36.2642 314.852 36.2642C315.389 36.2642 315.855 36.3587 316.249 36.5476C316.647 36.7332 316.954 36.9867 317.169 37.3082C317.388 37.6264 317.497 37.9877 317.497 38.392C317.497 38.8229 317.376 39.1709 317.134 39.4361C316.892 39.7012 316.589 39.8902 316.224 40.0028V40.0824C316.513 40.1023 316.763 40.1951 316.975 40.3608C317.191 40.5232 317.358 40.737 317.477 41.0021C317.597 41.264 317.656 41.554 317.656 41.8722C317.656 42.3362 317.532 42.7405 317.283 43.0852C317.035 43.4266 316.693 43.6918 316.259 43.8807C315.825 44.0663 315.33 44.1591 314.773 44.1591C314.232 44.1591 313.749 44.0713 313.321 43.8956C312.893 43.7166 312.554 43.4697 312.302 43.1548C312.053 42.8366 311.922 42.4688 311.909 42.0511ZM320.478 42.2699L324.157 36.3636H325.509V44H324.336V38.0938L320.676 44H319.304V36.3636H320.478V42.2699ZM332.769 39.6449V40.7386H328.553V39.6449H332.769ZM328.831 36.3636V44H327.658V36.3636H328.831ZM333.664 36.3636V44H332.49V36.3636H333.664ZM338.053 44.179C337.57 44.179 337.13 44.0878 336.736 43.9055C336.342 43.7199 336.028 43.4531 335.796 43.1051C335.564 42.7538 335.448 42.3295 335.448 41.8324C335.448 41.3949 335.535 41.0402 335.707 40.7685C335.879 40.4934 336.11 40.2779 336.398 40.1222C336.686 39.9664 337.004 39.8504 337.352 39.7741C337.704 39.6946 338.057 39.6316 338.411 39.5852C338.875 39.5256 339.252 39.4808 339.54 39.451C339.832 39.4179 340.044 39.3632 340.176 39.2869C340.312 39.2107 340.38 39.0781 340.38 38.8892V38.8494C340.38 38.3589 340.246 37.9777 339.977 37.706C339.712 37.4342 339.31 37.2983 338.769 37.2983C338.209 37.2983 337.77 37.4209 337.452 37.6662C337.134 37.9115 336.91 38.1733 336.781 38.4517L335.667 38.054C335.866 37.59 336.131 37.2287 336.463 36.9702C336.797 36.7083 337.162 36.526 337.556 36.4233C337.954 36.3172 338.345 36.2642 338.73 36.2642C338.975 36.2642 339.257 36.294 339.575 36.3537C339.896 36.41 340.206 36.5277 340.504 36.7067C340.806 36.8857 341.056 37.1558 341.255 37.517C341.454 37.8783 341.553 38.3622 341.553 38.9688V44H340.38V42.9659H340.32C340.241 43.1316 340.108 43.3089 339.923 43.4979C339.737 43.6868 339.49 43.8475 339.182 43.9801C338.874 44.1127 338.498 44.179 338.053 44.179ZM338.232 43.125C338.696 43.125 339.088 43.0339 339.406 42.8516C339.727 42.6693 339.969 42.4339 340.132 42.1456C340.297 41.8572 340.38 41.554 340.38 41.2358V40.1619C340.33 40.2216 340.221 40.2763 340.052 40.326C339.886 40.3724 339.694 40.4138 339.475 40.4503C339.26 40.4834 339.049 40.5133 338.844 40.5398C338.642 40.563 338.478 40.5829 338.352 40.5994C338.047 40.6392 337.762 40.7038 337.497 40.7933C337.235 40.8795 337.023 41.0104 336.86 41.1861C336.701 41.3584 336.622 41.5937 336.622 41.892C336.622 42.2997 336.772 42.608 337.074 42.8168C337.379 43.0223 337.765 43.125 338.232 43.125ZM344.57 36.3636L346.4 39.4858L348.229 36.3636H349.581L347.115 40.1818L349.581 44H348.229L346.4 41.0369L344.57 44H343.218L345.644 40.1818L343.218 36.3636H344.57Z" fill="#263141"/>
<defs>
<clipPath id="clip0_1263_23393">
<rect width="186" height="60" fill="white"/>
</clipPath>
</defs>
</svg>
